<?xml version="1.0" standalone="no"?>
<!DOCTYPE svg PUBLIC "-//W3C//DTD SVG 20010904//EN"
 "http://www.w3.org/TR/2001/REC-SVG-20010904/DTD/svg10.dtd">
<svg version="1.0" xmlns="http://www.w3.org/2000/svg"
 width="600.000000pt" height="404.000000pt" viewBox="0 0 600.000000 404.000000"
 preserveAspectRatio="xMidYMid meet">

<g transform="translate(0.000000,404.000000) scale(0.100000,-0.100000)"
fill="#000000" stroke="none">
<path d="M378 4033 c12 -2 30 -2 40 0 9 3 -1 5 -23 4 -22 0 -30 -2 -17 -4z"/>
<path d="M440 4036 c0 -2 11 -6 25 -8 14 -3 25 -1 25 3 0 5 -11 9 -25 9 -14 0
-25 -2 -25 -4z"/>
<path d="M505 4030 c3 -5 15 -10 26 -10 10 0 19 -4 19 -10 0 -5 -11 -10 -23
-10 -20 0 -24 -5 -25 -29 0 -25 4 -30 26 -34 l27 -4 -27 -2 -28 -1 0 -80 c0
-79 0 -80 25 -80 14 0 25 -4 25 -10 0 -5 -11 -10 -25 -10 -21 0 -25 -5 -25
-29 0 -16 6 -32 13 -34 10 -4 10 -6 0 -6 -9 -1 -13 -22 -13 -73 0 -39 -3 -69
-6 -65 -4 3 -7 53 -8 109 -1 98 -2 103 -23 106 -21 3 -21 0 -22 -112 -1 -104
1 -115 18 -121 10 -3 23 -5 27 -4 24 4 64 -2 64 -10 0 -10 -58 -21 -62 -11 -2
4 -54 10 -117 14 l-113 6 4 -35 c4 -34 3 -35 -32 -34 -30 2 -31 3 -7 6 22 4
27 9 27 34 0 24 -4 29 -24 29 -12 0 -50 3 -84 6 l-60 7 -1 -108 c-1 -60 -3
-111 -6 -113 -3 -3 -5 29 -5 71 l0 77 -35 0 -35 0 0 -80 0 -80 53 -1 c28 0 59
-2 67 -3 8 -2 80 -6 160 -9 80 -4 159 -9 177 -13 25 -5 32 -3 36 12 4 17 5 17
6 2 1 -12 9 -18 26 -18 14 0 25 -4 25 -10 0 -5 -11 -10 -24 -10 -21 0 -25 -5
-29 -37 l-4 -38 -1 43 c-2 41 -3 43 -34 41 -18 -1 -62 1 -98 4 -186 17 -273
18 -281 5 -7 -10 -9 -10 -9 0 0 7 -14 12 -35 12 l-35 0 0 -114 0 -114 83 -6
c113 -9 243 -15 300 -16 26 0 47 -5 47 -11 0 -6 -16 -8 -42 -5 -24 3 -121 8
-215 11 l-173 6 0 -119 0 -119 40 4 c25 3 40 1 40 -6 0 -6 -18 -11 -40 -11
l-40 0 0 -119 0 -118 73 -2 c39 0 81 -3 92 -5 11 -3 52 -5 90 -7 39 -1 58 -4
43 -6 -16 -2 -28 -8 -28 -12 0 -18 34 -35 61 -33 19 2 31 -2 35 -12 4 -10 18
-16 38 -16 17 0 38 -5 46 -10 11 -7 6 -8 -17 -4 -20 4 -39 2 -47 -5 -10 -8
-16 -9 -21 -1 -3 5 -16 10 -28 11 -20 1 -20 2 3 9 22 7 21 8 -12 9 -26 1 -42
8 -56 26 -19 24 -23 25 -146 25 l-126 0 0 -115 0 -115 24 0 c14 0 32 10 40 22
22 31 20 47 -4 41 -10 -3 -26 2 -35 11 -14 13 -14 16 -2 16 8 0 17 9 20 20 3
12 14 20 27 20 18 0 21 -4 17 -21 -4 -15 -2 -19 8 -15 9 3 12 0 9 -8 -8 -20
72 -69 124 -77 26 -3 80 -12 121 -18 41 -6 76 -9 79 -7 2 3 -1 19 -7 37 -6 18
-9 34 -6 37 4 4 17 -22 29 -60 4 -14 16 -18 50 -18 25 0 48 -4 51 -10 5 -8
-12 -12 -55 -12 -3 0 -22 3 -42 6 l-37 7 14 -38 c8 -21 16 -50 19 -64 3 -15
14 -29 25 -32 12 -3 21 -17 25 -38 15 -76 31 -119 46 -121 9 -2 11 -6 5 -10
-21 -13 -35 9 -52 78 -10 44 -24 76 -39 89 -13 12 -25 37 -29 60 -3 22 -10 47
-14 54 -11 17 -96 34 -173 35 -31 1 -56 4 -55 8 1 3 -17 20 -40 37 l-42 31
-16 -34 c-9 -18 -32 -42 -51 -52 l-34 -19 0 -282 c0 -230 2 -281 13 -277 8 3
18 -6 25 -21 12 -26 32 -26 32 1 0 25 19 15 35 -18 15 -31 15 -32 -1 -10 l-17
23 -18 -27 -17 -27 -16 37 c-9 21 -20 35 -26 31 -7 -4 -10 -222 -10 -648 l0
-643 50 -37 c31 -23 50 -44 48 -55 -3 -14 9 -17 75 -20 67 -3 76 -2 71 12 -3
9 -12 16 -20 16 -8 0 -14 5 -14 10 0 6 155 10 443 11 243 1 446 1 451 0 5 -1
13 4 17 11 7 10 9 10 9 1 0 -7 5 -13 10 -13 6 0 10 7 10 16 0 8 5 12 10 9 6
-4 8 -11 5 -16 -4 -5 -1 -9 4 -9 6 0 11 7 11 15 0 8 5 15 10 15 6 0 10 -8 10
-17 0 -13 2 -15 8 -5 5 7 25 15 45 19 31 5 37 3 37 -13 0 -17 1 -17 15 2 14
19 14 19 15 0 0 -20 0 -20 15 0 13 17 14 17 15 2 0 -21 16 -24 23 -5 4 9 6 9
6 0 1 -7 6 -13 12 -13 5 0 7 5 4 10 -3 6 -2 10 4 10 5 0 12 -6 14 -12 3 -8 6
-6 6 5 1 22 51 24 51 2 0 -21 18 -19 23 3 4 16 5 16 6 0 1 -23 18 -23 24 0 4
16 5 16 6 0 1 -20 21 -25 21 -5 0 8 4 7 10 -3 8 -13 10 -12 10 3 0 14 5 17 23
11 12 -4 25 -11 28 -16 4 -6 8 -6 10 1 3 7 20 13 39 13 19 0 43 5 53 10 13 7
19 4 27 -14 8 -22 9 -22 9 5 1 34 21 36 21 2 0 -37 18 -31 23 8 l4 32 1 -32
c3 -45 20 -42 25 5 l4 37 1 -37 c3 -54 20 -47 25 10 l3 47 2 -47 c1 -27 6 -48
11 -48 6 0 11 21 13 48 l3 47 12 -35 11 -35 1 38 c1 40 17 50 24 15 4 -23 4
-23 6 1 1 17 5 21 17 17 8 -3 30 1 47 10 53 27 137 94 137 109 0 9 6 12 15 9
9 -4 38 11 72 36 47 36 70 46 147 61 50 11 105 19 123 19 17 0 53 10 80 21 26
12 65 24 86 26 42 5 107 -13 107 -29 0 -13 120 0 139 15 17 14 136 16 150 2 7
-7 -11 -9 -54 -7 -45 3 -74 -1 -96 -12 -36 -18 -114 -21 -153 -6 -16 6 -46 6
-83 0 -39 -7 -59 -6 -61 1 -3 6 -14 4 -29 -6 -13 -9 -45 -19 -71 -22 -167 -19
-156 -16 -163 -48 l-7 -30 -1 28 c-1 25 -4 27 -28 21 -36 -9 -55 -23 -46 -37
3 -6 1 -7 -5 -3 -8 5 -12 -1 -12 -18 0 -40 -9 -54 -62 -91 -40 -29 -58 -36
-91 -35 -63 3 -75 0 -48 -11 14 -5 31 -7 38 -5 21 8 15 -8 -11 -33 -15 -14
-22 -30 -19 -42 7 -27 23 -24 23 5 0 14 5 28 11 32 8 5 10 -3 7 -25 -2 -17 -1
-31 4 -31 4 0 8 18 8 40 0 43 -4 41 80 44 53 1 60 -6 53 -51 -4 -21 -2 -33 6
-33 6 0 11 19 11 47 0 25 3 44 6 40 4 -3 6 -24 6 -47 0 -22 3 -40 9 -40 5 0 9
20 9 45 0 26 5 45 11 45 7 0 10 -17 7 -45 -2 -25 0 -45 4 -45 5 0 8 18 8 40 0
38 19 59 21 23 0 -11 3 -13 6 -5 9 24 22 12 26 -25 l4 -38 1 38 c2 35 3 36 22
25 11 -7 20 -23 20 -35 0 -13 5 -23 10 -23 6 0 10 12 10 27 0 29 15 22 23 -12
4 -18 5 -18 6 3 0 12 6 22 11 22 6 0 11 -10 11 -22 1 -17 2 -19 6 -5 6 22 20
22 26 -1 4 -15 5 -15 6 0 1 20 41 21 41 1 0 -7 5 -13 10 -13 6 0 10 7 10 15 0
21 18 19 23 -3 4 -16 5 -16 6 1 0 9 6 17 12 17 6 0 9 -7 5 -15 -3 -8 -1 -15 4
-15 6 0 10 10 10 23 0 17 2 19 9 7 6 -8 7 -18 5 -22 -3 -4 -1 -8 5 -8 5 0 12
10 14 23 l4 22 2 -22 c1 -27 18 -30 24 -6 4 16 5 17 6 1 1 -16 41 -17 571 -17
369 -1 570 3 570 9 0 15 40 12 41 -2 0 -7 4 -3 9 10 12 28 27 28 33 0 l4 -23
2 23 c0 12 8 23 16 23 17 2 24 3 48 12 38 15 47 16 47 4 0 -8 3 -8 9 2 5 7 13
11 19 7 6 -3 12 0 15 6 3 10 8 9 22 -2 10 -8 20 -14 22 -12 1 1 32 2 67 2 53
0 65 -3 69 -18 4 -15 5 -15 6 2 1 15 4 16 16 6 10 -9 15 -9 15 -1 0 18 20 12
21 -6 0 -15 2 -14 9 3 9 22 34 37 44 27 3 -4 6 -21 6 -40 0 -18 5 -33 10 -33
6 0 10 16 10 35 0 47 20 45 21 -2 l2 -38 7 40 7 40 2 -37 c1 -48 21 -50 21 -3
0 47 20 45 21 -2 l1 -38 13 40 c13 39 13 40 15 10 1 -16 2 -33 1 -37 0 -5 4
-8 9 -8 6 0 10 15 11 33 0 32 0 32 11 7 9 -21 12 -22 15 -7 3 12 10 16 20 13
8 -3 19 -6 24 -6 5 0 10 -10 10 -22 1 -17 2 -19 6 -5 5 21 23 23 23 2 0 -18
16 -20 23 -2 4 9 8 8 16 -3 9 -13 11 -13 11 0 0 10 3 11 11 3 6 -6 26 -7 52
-2 23 4 43 4 45 -1 2 -5 166 -9 365 -10 351 -1 363 0 384 20 28 26 33 25 34
-2 l0 -23 10 23 c5 13 14 20 20 17 6 -4 8 -13 5 -21 -3 -8 -1 -14 4 -14 5 0
11 10 13 22 l4 23 2 -22 c1 -27 18 -30 24 -5 4 16 5 16 6 0 1 -15 16 -17 151
-17 l150 1 0 54 0 54 -40 0 c-21 0 -55 -8 -75 -17 -34 -16 -39 -16 -84 0 -60
21 -97 21 -157 1 -26 -9 -64 -14 -86 -12 -21 2 -38 0 -38 -3 0 -9 -78 -23
-110 -20 -56 6 -105 42 -180 133 -41 51 -102 119 -136 153 -34 33 -89 96 -124
140 -35 44 -71 89 -79 99 -15 18 -15 18 0 10 9 -5 40 -40 69 -79 29 -38 90
-108 137 -154 46 -46 112 -119 145 -162 79 -102 152 -139 205 -106 7 4 23 5
36 2 16 -4 47 4 92 24 80 37 93 37 175 11 62 -20 160 -27 160 -12 0 4 20 13
45 20 l45 12 0 1475 c0 1173 -3 1475 -12 1475 -10 0 -10 2 0 8 9 7 12 78 11
315 l-1 307 -486 -2 c-474 -3 -485 -3 -488 -23 -2 -10 2 -25 8 -32 7 -9 7 -13
-1 -13 -6 0 -11 -14 -11 -32 0 -17 -3 -29 -6 -26 -3 4 -5 34 -5 67 l0 61 -105
0 -104 0 0 -31 c0 -17 4 -28 10 -24 6 3 10 1 10 -4 0 -6 -4 -11 -9 -11 -5 0
-12 -8 -14 -17 -3 -10 -5 6 -6 35 l-1 52 -80 0 -80 0 0 -35 c0 -19 -4 -35 -8
-35 -4 0 -6 16 -4 35 4 30 1 35 -16 35 -16 0 -22 -8 -25 -32 l-4 -33 -1 33
c-2 25 -6 32 -22 32 -18 0 -20 -6 -19 -55 1 -30 -1 -58 -4 -62 -4 -3 -7 7 -7
23 0 16 -4 25 -8 19 -4 -5 -15 -11 -24 -11 -15 -2 -18 6 -18 42 0 37 -3 44
-19 44 -12 0 -21 -8 -24 -22 l-4 -23 -2 23 c-1 16 -7 22 -26 22 -14 0 -25 -6
-26 -12 0 -7 -2 -46 -4 -87 -6 -106 -15 -100 -15 10 0 64 -3 89 -10 79 -6 -10
-10 -11 -10 -2 0 9 -30 12 -115 12 -103 0 -115 -2 -116 -17 0 -15 -2 -15 -9 2
-5 11 -9 14 -9 7 -1 -7 7 -25 16 -39 17 -26 17 -27 0 -20 -14 5 -17 0 -18 -36
-1 -35 -2 -38 -8 -17 -5 14 -6 46 -3 73 4 46 4 47 -24 47 l-29 0 1 -75 c1 -42
4 -79 8 -82 3 -3 6 19 6 50 0 32 3 57 8 57 4 0 7 -27 7 -60 0 -33 -3 -60 -7
-60 -3 0 -13 -3 -21 -6 -11 -4 -17 2 -20 18 -4 21 -4 21 -6 2 -1 -15 -13 -26
-44 -38 -23 -9 -48 -16 -55 -16 -14 0 -16 -16 -3 -25 5 -3 13 0 17 6 4 8 9 7
15 -2 8 -11 12 -10 24 5 14 18 15 16 15 -31 0 -42 -3 -52 -20 -56 -13 -3 -20
-14 -20 -30 0 -30 15 -43 27 -25 5 8 10 -3 14 -32 l6 -45 1 43 c1 23 6 42 11
42 6 0 12 -19 14 -42 2 -24 4 15 5 85 1 71 6 126 10 123 4 -2 7 -28 5 -58 -1
-29 -3 -120 -4 -203 -1 -153 -6 -182 -11 -65 -3 54 -6 65 -22 68 -16 3 -18 0
-12 -19 4 -13 12 -62 18 -109 9 -63 14 -78 19 -60 4 14 5 2 2 -26 -5 -51 -5
-52 20 -47 22 4 28 0 41 -31 8 -20 20 -36 25 -36 6 0 11 -20 11 -43 0 -57 10
-65 31 -25 l17 32 26 -53 c15 -29 32 -51 39 -48 20 6 55 84 60 134 3 26 10
104 16 172 10 118 21 172 21 102 0 -25 4 -32 14 -28 9 4 17 -1 19 -11 3 -9 5
8 6 38 0 39 -2 51 -9 40 -8 -13 -10 -13 -10 2 0 9 4 20 10 23 6 3 10 21 11 38
l1 32 16 -35 c8 -19 15 -39 14 -43 -2 -5 2 -5 8 -2 6 4 9 13 6 21 -3 8 -2 13
2 11 4 -1 8 1 10 6 4 13 46 51 59 53 7 1 13 -8 13 -20 0 -15 7 -22 20 -23 14
-1 20 4 20 18 0 10 4 19 9 19 5 0 12 10 17 23 6 16 9 7 11 -38 3 -41 7 -55 13
-45 8 13 10 13 10 -1 0 -10 8 -15 23 -14 15 1 21 8 20 21 -1 10 0 13 3 7 10
-22 40 -14 52 12 7 14 12 48 12 75 0 28 4 50 10 50 5 0 9 -3 9 -7 -5 -34 3
-73 16 -73 8 0 23 -20 34 -45 20 -46 45 -53 54 -17 4 13 5 12 6 -4 0 -11 -4
-25 -11 -32 -8 -8 -4 -9 17 -3 24 6 31 15 41 55 7 26 15 50 17 52 3 3 19 -9
37 -26 30 -29 33 -30 50 -15 11 10 22 30 25 46 4 16 20 38 36 50 17 12 44 45
60 75 34 59 55 80 39 40 -12 -33 -56 -102 -70 -111 -6 -3 -8 -11 -4 -16 3 -5
2 -9 -3 -8 -21 4 -31 -3 -37 -24 -8 -32 -44 -77 -62 -77 -8 0 -26 11 -39 24
l-25 25 -6 -27 c-17 -74 -22 -87 -35 -84 -8 1 6 -17 31 -40 25 -24 51 -51 58
-60 16 -20 53 -120 48 -126 -3 -2 -14 23 -26 57 -12 33 -30 67 -39 75 -58 55
-97 80 -124 82 -18 2 -33 8 -35 13 -8 23 -22 9 -23 -21 l-1 -33 -8 27 c-8 28
-3 68 9 68 3 0 12 -9 19 -20 7 -11 17 -20 22 -20 6 0 1 13 -11 30 -12 16 -26
27 -31 24 -4 -3 -7 5 -5 17 1 12 -3 24 -10 26 -8 3 -13 -13 -15 -49 -3 -48 -4
-51 -15 -28 -12 27 -12 27 -33 -42 -6 -20 -17 -42 -25 -48 -8 -7 -12 -17 -8
-24 4 -6 -1 -5 -10 3 -9 7 -21 28 -25 45 l-9 31 -22 -40 c-20 -37 -24 -26 -6
19 6 14 4 18 -6 14 -16 -5 -25 -56 -11 -70 5 -5 6 -27 1 -51 -4 -23 -8 -65 -9
-94 0 -33 -9 -72 -24 -105 -13 -29 -29 -77 -36 -105 -12 -52 -12 -53 -48 -51
-37 1 -37 1 -5 5 28 4 34 10 43 41 5 20 10 46 10 58 0 11 6 26 13 33 10 11 10
14 0 18 -20 7 -15 23 6 23 25 0 31 47 21 170 l-7 95 -2 -75 c-2 -84 -20 -137
-21 -60 0 25 -5 52 -11 60 -9 13 -10 12 -5 -2 3 -10 1 -18 -4 -18 -6 0 -10 21
-10 46 0 27 4 43 10 39 6 -3 10 -1 10 4 0 6 -7 11 -15 11 -10 0 -15 -10 -15
-29 0 -17 -4 -33 -10 -36 -6 -4 -10 7 -10 27 0 18 -5 40 -10 48 -8 12 -10 11
-8 -5 0 -11 0 -58 -1 -105 -2 -67 -5 -79 -11 -56 -5 16 -7 33 -4 38 3 4 0 16
-5 25 -12 21 -11 24 -17 -52 -7 -83 -14 -82 -14 3 0 40 -4 72 -9 72 -13 0 -24
-34 -12 -38 6 -2 11 -8 11 -13 0 -6 -4 -7 -10 -4 -5 3 -10 1 -10 -4 0 -18 5
-26 12 -24 5 2 8 -4 8 -12 0 -8 -4 -15 -10 -15 -5 0 -10 -12 -10 -27 0 -31
-19 -71 -20 -43 0 8 -11 -16 -25 -54 -23 -65 -48 -106 -67 -106 -4 0 -21 21
-37 46 -33 54 -39 47 -48 -56 -6 -76 -13 -92 -13 -30 l0 44 -27 -52 c-32 -62
-44 -54 -42 28 2 64 6 75 23 61 14 -12 13 15 -6 112 -12 63 -21 75 -44 56 -23
-19 -30 -2 -44 116 -16 140 -20 151 -56 150 -25 -1 -30 -7 -35 -36 l-6 -34 -2
36 c0 19 -6 40 -13 47 -9 9 -9 12 0 12 7 0 12 6 11 13 -1 6 -1 20 0 30 2 28
21 9 22 -21 1 -21 3 -18 9 12 8 43 3 76 -12 76 -5 0 -8 -7 -6 -16 2 -10 -2
-19 -9 -21 -7 -3 -9 3 -6 17 4 16 2 19 -11 14 -13 -5 -16 -18 -15 -53 1 -25 0
-62 -1 -81 -2 -33 -3 -33 -10 -10 -6 19 -8 20 -9 6 -1 -16 -3 -16 -17 -6 -12
11 -15 11 -12 -1 2 -9 -5 -13 -22 -12 -14 1 -20 0 -15 -3 6 -2 9 -24 7 -49 -2
-25 -8 -42 -13 -39 -5 3 -7 22 -4 42 l4 37 -27 -47 c-15 -27 -31 -46 -37 -45
-5 2 -14 20 -19 40 -5 20 -13 37 -18 37 -4 0 -7 -5 -6 -11 2 -7 -9 -15 -24
-20 -19 -5 -28 -4 -28 4 0 7 -5 4 -11 -5 -5 -10 -16 -18 -24 -18 -17 0 -23
-41 -30 -210 -5 -123 -20 -255 -45 -400 -5 -30 -12 -77 -16 -103 -6 -47 -36
-98 -49 -86 -3 4 -26 107 -51 230 -40 204 -54 259 -54 217 0 -9 -9 -41 -21
-71 -21 -55 -22 -55 -56 -50 l-35 6 3 -41 c2 -23 0 -44 -4 -48 -4 -4 -7 -13
-7 -21 0 -10 5 -11 19 -4 14 8 20 7 25 -4 6 -17 -2 -45 -14 -45 -18 0 -59 -48
-65 -77 -7 -37 -13 -40 -30 -17 -10 14 -16 5 -40 -57 -15 -42 -31 -107 -35
-149 -4 -41 -7 -67 -8 -57 -3 32 -19 18 -32 -29 -10 -35 -16 -44 -29 -38 -35
14 -51 16 -51 5 0 -18 4 -26 13 -23 4 1 7 -2 7 -8 0 -5 -9 -10 -20 -10 -13 0
-20 -7 -20 -20 0 -14 7 -20 23 -20 13 0 32 9 42 20 16 18 16 20 2 20 -10 0
-17 4 -17 9 0 5 11 9 25 9 14 -1 35 8 45 17 24 21 27 4 4 -19 -14 -15 -11 -16
30 -16 35 0 46 4 46 16 0 8 5 12 10 9 6 -4 7 -11 4 -17 -7 -11 28 -3 56 13 12
6 8 11 -17 21 -18 7 -34 21 -37 34 -3 12 -9 30 -13 41 -3 10 -3 15 2 11 4 -4
14 -3 22 3 8 8 13 8 13 1 0 -6 -5 -12 -11 -14 -15 -5 0 -58 17 -58 8 0 26 -7
39 -16 24 -15 25 -15 25 2 0 14 2 16 9 6 4 -8 19 -19 31 -25 30 -15 151 -10
149 6 -1 7 -1 31 0 55 2 63 21 51 21 -13 0 -48 2 -55 20 -55 14 0 20 7 21 23
0 22 1 21 12 -3 10 -22 12 -17 15 48 2 39 6 72 10 72 11 0 32 -51 32 -76 0
-12 -6 -25 -12 -27 -10 -4 -10 -8 2 -16 19 -13 32 -4 29 22 -3 45 4 60 10 22
4 -22 5 -44 4 -50 -4 -11 -51 -35 -70 -35 -7 0 -13 -9 -13 -19 0 -20 32 -37
50 -26 5 3 10 0 10 -8 0 -10 -13 -14 -44 -15 -37 0 -44 3 -39 16 4 10 2 13 -5
8 -7 -4 -12 -13 -12 -19 0 -7 -12 -20 -25 -30 -24 -17 -24 -17 -19 0 3 11 -5
6 -20 -12 -33 -38 -34 -24 -1 19 14 18 25 45 25 59 0 26 -2 27 -59 27 l-59 0
16 -42 c8 -24 23 -52 31 -63 16 -20 16 -20 -6 -1 -13 11 -23 23 -23 29 0 26
-34 77 -51 77 -16 0 -19 -8 -19 -45 0 -33 -4 -45 -15 -45 -8 0 -14 -8 -13 -17
1 -10 0 -34 -1 -53 -3 -33 -4 -33 -11 -10 -4 14 -8 58 -9 98 -1 64 -3 73 -18
70 -16 -3 -18 -18 -21 -113 -3 -115 2 -133 13 -50 3 27 8 51 9 52 2 2 6 -20 9
-49 4 -28 12 -55 19 -59 10 -6 9 -11 -4 -21 -9 -7 -18 -24 -20 -38 -4 -23 -5
-23 -15 10 -8 26 -11 29 -12 13 -1 -13 -6 -23 -12 -23 -9 0 -10 25 -6 87 4 77
3 85 -9 68 -13 -17 -14 -14 -15 36 -1 30 -1 57 0 62 2 16 -17 5 -27 -16 l-11
-22 0 23 c-1 19 -6 22 -42 22 -25 0 -38 -4 -34 -10 4 -6 3 -10 -2 -9 -4 1 -15
-1 -23 -4 -8 -3 -26 -7 -40 -9 -17 -2 -25 -9 -23 -21 0 -12 -4 -16 -13 -13 -8
3 -14 1 -14 -4 0 -6 -6 -10 -14 -10 -8 0 -17 -6 -19 -12 -4 -10 -7 -10 -15 0
-6 9 -26 12 -58 10 l-49 -3 -6 -55 -6 -55 -1 54 c-2 53 -2 53 -32 49 -39 -6
-39 11 -1 18 17 4 32 14 34 23 4 14 5 14 6 -1 2 -29 71 -20 71 9 0 8 5 11 10
8 6 -3 10 -1 10 4 0 6 -9 11 -20 11 -12 0 -32 11 -46 25 -14 14 -29 25 -34 25
-6 0 -10 -11 -10 -25 0 -14 -5 -25 -11 -25 -5 0 -8 4 -4 9 8 14 -15 25 -27 13
-5 -5 -12 -38 -14 -73 -7 -90 -6 -89 -16 -83 -11 7 -35 -51 -58 -140 -10 -39
-19 -64 -19 -55 -1 22 38 169 52 193 6 12 13 28 14 36 11 69 13 106 12 175 -1
101 0 138 6 144 3 2 5 -27 6 -65 0 -42 3 -61 8 -50 7 19 8 19 23 -3 14 -20 15
-18 15 44 0 36 3 68 6 72 4 3 7 -29 7 -72 0 -68 2 -76 15 -65 8 7 15 24 16 39
0 14 4 35 8 46 8 18 10 16 24 -15 9 -20 16 -28 16 -17 1 23 10 22 32 -5 l19
-21 0 21 c0 12 5 22 10 22 6 0 10 -22 10 -50 0 -31 4 -50 11 -50 8 0 10 14 6
40 -3 22 -1 40 3 40 5 0 11 -24 13 -52 2 -29 4 43 5 160 1 133 6 212 12 212 6
0 10 -70 11 -187 0 -104 3 -182 6 -175 2 6 14 12 24 12 19 0 20 6 17 113 -2
69 1 113 7 114 6 2 9 -41 8 -117 -2 -74 1 -120 7 -120 11 0 12 12 11 155 0 67
3 92 9 75 6 -20 8 -14 9 30 1 77 20 51 23 -30 l1 -65 28 60 c15 33 28 65 29
72 0 6 5 24 11 40 10 26 11 27 24 10 12 -16 13 -15 18 10 3 15 2 30 -2 33 -5
3 -10 17 -13 33 -4 22 -1 28 18 33 13 3 24 10 24 15 0 5 -6 6 -14 3 -8 -3 -17
-1 -20 4 -3 5 3 12 14 15 20 5 24 11 34 59 7 29 40 46 60 29 10 -8 19 8 41 74
16 47 33 85 37 85 4 0 8 -3 8 -6 0 -5 43 -225 81 -416 6 -32 15 -56 19 -53 34
21 106 756 75 769 -6 3 -5 5 1 5 6 1 10 11 8 24 -10 72 -11 107 -3 107 5 0 9
-22 9 -50 0 -27 5 -50 10 -50 6 0 10 12 10 26 0 16 4 23 11 18 6 -3 9 -17 6
-30 -6 -31 7 -22 23 16 15 35 26 38 35 9 4 -11 9 -18 12 -16 2 3 0 14 -5 24
-7 13 -6 24 5 38 13 16 15 17 10 3 -5 -13 -1 -18 13 -18 15 0 21 -9 26 -40 4
-22 10 -43 15 -46 13 -7 28 30 23 57 -4 21 -3 22 5 4 5 -11 10 -15 10 -8 1 6
4 19 7 28 5 13 1 15 -24 10 -19 -3 -34 0 -42 9 -9 12 -7 15 12 13 13 0 26 -6
30 -12 5 -6 8 -2 8 9 0 11 5 16 13 13 17 -6 10 54 -7 65 -8 5 -7 8 2 8 8 0 12
19 12 63 0 42 -3 57 -10 47 -5 -8 -12 -12 -15 -8 -3 3 0 12 7 19 8 8 14 46 16
93 2 67 1 78 -13 73 -12 -5 -15 2 -15 33 0 23 -5 40 -11 40 -8 0 -10 -12 -6
-34 6 -35 -6 -56 -31 -56 -12 0 -12 3 -2 15 11 13 10 14 -4 9 -9 -3 -16 -12
-16 -20 0 -20 -18 -17 -22 4 -6 28 4 63 16 59 6 -3 10 -10 8 -17 -1 -6 5 -10
14 -8 10 2 18 13 19 25 1 20 -3 21 -75 20 -73 0 -76 -1 -78 -25 -1 -17 2 -23
12 -19 22 8 32 -10 28 -48 -6 -46 -22 -45 -22 2 0 20 -3 33 -7 29 -4 -4 -8
-54 -9 -112 -2 -114 -13 -155 -16 -58 -2 86 -2 87 -16 92 -14 4 -16 78 -2 87
6 3 10 17 10 31 0 21 -5 24 -34 24 -19 0 -37 -6 -39 -12 -4 -10 -6 -10 -6 0
-1 6 -7 12 -15 12 -16 0 -28 -37 -15 -46 5 -3 6 -17 2 -32 -6 -24 -5 -26 11
-13 20 17 26 12 32 -28 4 -25 1 -32 -24 -45 -24 -12 -28 -20 -25 -41 4 -16 12
-25 23 -25 15 0 19 -10 22 -52 4 -57 2 -70 -11 -50 -4 7 -18 11 -32 10 -22 -3
-24 0 -22 35 2 23 -1 35 -7 32 -6 -3 -10 -17 -10 -31 0 -14 -9 -34 -20 -46
-11 -12 -20 -18 -20 -14 0 5 -7 3 -15 -4 -13 -11 -15 -6 -15 34 0 52 19 64 21
14 1 -26 3 -28 6 -9 3 13 17 35 33 50 17 16 28 36 28 52 0 25 -3 26 -29 19
-28 -8 -29 -8 -28 28 l1 37 8 -30 c7 -29 8 -28 9 11 1 34 5 43 23 47 18 5 19
8 9 21 -11 13 -11 17 1 21 10 4 13 15 10 31 -5 29 -22 32 -22 4 0 -21 -27 -39
-68 -46 -44 -8 -54 -13 -48 -29 3 -10 -8 -21 -37 -34 -35 -17 -37 -19 -14 -16
23 3 26 1 18 -9 -6 -7 -8 -15 -5 -19 3 -3 -5 -3 -18 -1 -20 5 -21 4 -5 -6 21
-13 23 -60 3 -60 -8 0 -17 12 -19 28 -2 15 -4 -4 -5 -43 0 -38 2 -64 5 -57 2
6 15 12 27 12 12 0 27 5 34 12 9 9 12 2 12 -34 l0 -47 45 3 c25 1 45 -1 45 -6
0 -4 -7 -9 -15 -9 -18 -2 -25 -4 -45 -12 -19 -8 -140 -45 -141 -43 0 0 -3 82
-5 181 -3 125 -9 182 -17 187 -9 6 -9 8 1 8 6 0 12 4 12 10 0 5 -7 7 -15 4
-10 -4 -15 0 -15 11 0 11 5 15 15 11 8 -3 15 0 15 7 0 13 -60 23 -60 10 -1 -5
-3 -172 -6 -373 -4 -225 -10 -370 -16 -377 -7 -9 -7 -13 1 -13 6 0 11 -4 11
-10 0 -5 -11 -10 -25 -10 l-25 0 0 395 0 395 -56 -2 c-47 -2 -55 -5 -51 -20 3
-10 1 -18 -4 -18 -5 0 -9 9 -9 21 0 11 -4 18 -9 15 -5 -3 -7 -34 -5 -68 2 -49
1 -55 -5 -28 -6 23 -9 -26 -11 -145 -1 -99 -4 -270 -6 -380 -2 -110 -4 -203
-4 -207 0 -5 -5 -8 -11 -8 -5 0 -7 5 -4 10 3 6 1 10 -4 10 -7 0 -11 -28 -11
-72 0 -65 -10 -88 -16 -35 -4 37 -14 459 -17 697 l-2 225 -57 3 c-53 3 -58 1
-58 -18 0 -31 3 -35 29 -31 15 2 21 -1 16 -8 -3 -6 -10 -9 -14 -7 -4 3 -13 1
-20 -4 -11 -6 -15 -71 -17 -311 -2 -167 -6 -330 -8 -361 -3 -37 -1 -58 6 -58
7 0 7 -4 0 -12 -12 -15 -12 -16 -12 -65 0 -26 -3 -34 -11 -26 -6 6 -10 81 -9
208 0 109 -3 195 -7 192 -4 -4 -8 -21 -9 -38 -4 -46 -14 -48 -15 -3 l-2 39 -7
-40 -7 -40 -2 38 c-1 45 -20 50 -22 5 l-2 -33 -6 35 -7 35 -6 -35 c-10 -63 -9
-188 1 -195 6 -3 11 0 12 7 0 7 5 0 9 -16 5 -16 7 -33 4 -38 -3 -4 0 -8 6 -8
8 0 10 9 7 23 -4 12 -2 29 3 37 7 11 10 3 10 -27 0 -24 5 -43 10 -43 6 0 10
-4 10 -8 0 -4 -17 -8 -38 -9 -21 -1 -45 -3 -53 -5 -9 -2 -13 4 -11 17 2 11 3
81 2 155 0 94 -4 136 -13 142 -9 6 -8 10 3 18 10 6 11 10 3 10 -17 0 -17 57 0
63 6 3 -1 6 -18 7 l-30 2 27 10 c25 8 28 15 28 51 l0 42 -22 -35 c-87 -138
-110 -171 -115 -166 -7 7 27 77 42 88 10 7 25 218 15 218 -5 0 -121 -193 -129
-213 -8 -23 -37 -46 -48 -39 -8 5 -5 20 13 52 13 25 29 56 36 70 7 14 15 27
18 30 10 9 100 161 103 173 1 7 8 17 15 22 8 6 12 18 10 27 -1 9 6 23 17 32
18 13 16 14 -23 6 -59 -10 -53 2 11 21 l52 16 -57 -1 c-32 -1 -58 -4 -58 -8 0
-5 -5 -8 -11 -8 -5 0 -7 5 -4 10 3 6 2 10 -4 10 -5 0 -12 -6 -14 -12 -4 -10
-6 -10 -6 0 -1 9 -34 12 -131 12 -112 0 -132 -2 -137 -16 -3 -9 -1 -25 5 -35
7 -10 7 -19 2 -21 -5 -2 -9 -80 -9 -183 0 -99 0 -189 0 -199 0 -33 18 -29
-401 -71 -201 -21 -190 -22 -190 20 0 19 -5 35 -11 35 -7 0 -10 -17 -8 -44 2
-24 1 -42 -3 -39 -5 2 -8 -1 -8 -7 0 -7 -7 -10 -15 -6 -12 4 -15 -4 -16 -37
-1 -23 -1 -45 0 -49 0 -4 -16 -10 -37 -13 -20 -4 -53 -11 -72 -16 -19 -5 -47
-9 -62 -9 l-28 0 -1 -92 c-1 -51 0 -102 1 -113 2 -16 0 -17 -14 -6 -14 12 -16
9 -17 -20 -1 -27 -4 -22 -14 26 l-13 60 -2 -60 c-2 -46 -4 -54 -10 -35 -4 14
-9 45 -11 70 -2 36 -4 31 -9 -30 l-6 -75 -2 63 c-3 92 -22 76 -24 -20 -1 -89
-11 158 -22 572 -4 140 -9 276 -12 303 l-6 47 -275 0 c-180 0 -272 -3 -268
-10z m2475 -20 c0 -5 -4 -10 -10 -10 -5 0 -10 5 -10 10 0 6 5 10 10 10 6 0 10
-4 10 -10z m92 -15 c3 -14 1 -25 -3 -25 -5 0 -9 11 -9 25 0 14 2 25 4 25 2 0
6 -11 8 -25z m395 3 c-3 -8 -6 -5 -6 6 -1 11 2 17 5 13 3 -3 4 -12 1 -19z
m2515 -105 c-2 -7 -13 -13 -23 -13 -14 0 -19 -7 -19 -25 0 -14 -4 -25 -10 -25
-5 0 -10 9 -10 20 0 17 -7 20 -40 20 -22 0 -59 10 -83 21 -35 17 -54 20 -91
15 -45 -7 -49 -10 -67 -54 l-21 -47 -56 63 c-31 34 -62 62 -68 62 -7 0 -36
-11 -65 -24 -30 -14 -80 -28 -111 -31 -55 -7 -58 -6 -70 19 l-12 27 -13 -23
c-7 -13 -12 -18 -13 -12 0 5 6 19 14 29 14 19 15 19 27 -8 12 -27 15 -28 63
-22 28 4 82 20 120 36 l70 29 54 -61 55 -60 21 38 c18 32 28 39 69 47 41 8 55
6 93 -12 55 -27 112 -29 130 -4 9 11 13 13 14 4 0 -7 5 -10 10 -7 6 3 10 30
10 59 0 29 3 56 8 60 7 8 20 -100 14 -121z m-5140 -85 c-3 -284 -9 -296 -11
-25 0 125 2 227 7 227 4 0 6 -91 4 -202z m1908 192 c0 -5 -10 -10 -22 -9 -22
0 -22 1 -3 9 11 5 21 9 23 9 1 1 2 -3 2 -9z m677 -22 c-3 -7 -5 -2 -5 12 0 14
2 19 5 13 2 -7 2 -19 0 -25z m-1087 10 c0 -7 -11 -14 -25 -14 -31 -2 -33 13
-2 19 12 2 23 5 25 6 1 0 2 -5 2 -11z m-1790 -7 c0 -6 -4 -13 -10 -16 -5 -3
-10 1 -10 9 0 9 5 16 10 16 6 0 10 -4 10 -9z m2333 -58 c-6 -80 -13 -80 -13 1
0 37 4 65 9 62 4 -3 6 -31 4 -63z m46 40 c-1 -20 -3 -22 -6 -9 -4 15 -7 16
-14 5 -7 -11 -9 -11 -9 3 0 14 7 21 28 27 1 1 1 -11 1 -26z m671 11 c0 -8 -5
-12 -10 -9 -6 4 -8 11 -5 16 9 14 15 11 15 -7z m1580 0 c0 -8 -7 -22 -15 -30
-16 -17 -18 -12 -9 24 7 25 24 30 24 6z m-2766 -10 c5 -14 4 -15 -9 -4 -17 14
-19 20 -6 20 5 0 12 -7 15 -16z m926 1 c0 -8 -2 -15 -4 -15 -2 0 -6 7 -10 15
-3 8 -1 15 4 15 6 0 10 -7 10 -15z m130 -29 c0 -25 -5 -48 -11 -51 -7 -5 -9
10 -7 44 4 63 18 68 18 7z m673 37 c-7 -2 -14 -17 -14 -31 -1 -18 -3 -21 -6
-9 -6 24 3 47 19 46 10 0 10 -2 1 -6z m977 -40 c0 -33 -3 -44 -11 -36 -9 9 -3
83 7 83 2 0 4 -21 4 -47z m-2053 -5 c-3 -7 -5 -2 -5 12 0 14 2 19 5 13 2 -7 2
-19 0 -25z m199 5 c-10 -10 -19 5 -10 18 6 11 8 11 12 0 2 -7 1 -15 -2 -18z
m831 -5 c-3 -7 -5 -2 -5 12 0 14 2 19 5 13 2 -7 2 -19 0 -25z m549 -28 c8 -7
15 -31 15 -54 l2 -41 6 35 c7 35 7 35 13 -14 7 -57 -1 -92 -13 -60 -7 17 -8
17 -8 -3 -1 -13 4 -23 9 -23 6 0 10 -14 10 -32 0 -30 -1 -31 -15 -12 -14 18
-14 18 -16 -6 -1 -23 -2 -23 -9 5 l-8 30 -1 -28 c0 -16 -5 -26 -11 -22 -5 3
-7 12 -3 20 3 9 -1 15 -11 15 -9 0 -16 -7 -16 -15 0 -8 -5 -15 -11 -15 -8 0
-10 18 -7 55 3 30 1 55 -4 55 -4 0 -3 9 4 20 8 12 15 15 19 9 10 -17 16 0 25
76 4 39 10 58 12 43 2 -14 10 -32 18 -38z m-399 3 c-3 -10 -5 -4 -5 12 0 17 2
24 5 18 2 -7 2 -21 0 -30z m230 -25 c-2 -13 -4 -3 -4 22 0 25 2 35 4 23 2 -13
2 -33 0 -45z m728 -27 c-8 -8 -13 3 -19 49 l-6 45 15 -45 c8 -24 12 -46 10
-49z m-408 57 c-3 -8 -6 -5 -6 6 -1 11 2 17 5 13 3 -3 4 -12 1 -19z m-1499
-31 c-3 -36 -6 -41 -40 -53 l-38 -13 0 49 c0 51 5 56 58 57 21 0 23 -3 20 -40z
m1849 21 c-3 -8 -6 -5 -6 6 -1 11 2 17 5 13 3 -3 4 -12 1 -19z m-2467 2 c0 -5
-5 -10 -11 -10 -5 0 -7 5 -4 10 3 6 8 10 11 10 2 0 4 -4 4 -10z m1031 -58 c-6
-2 -11 -18 -11 -37 0 -35 8 -30 -112 -61 -19 -5 -33 11 -18 21 5 3 10 1 10 -6
0 -10 3 -10 11 -2 6 6 18 9 25 6 8 -3 14 -1 14 5 0 6 14 13 30 17 28 6 30 10
30 51 0 24 5 44 10 44 6 0 11 8 12 18 0 9 3 1 5 -18 3 -19 0 -36 -6 -38z m816
31 c-3 -10 -5 -4 -5 12 0 17 2 24 5 18 2 -7 2 -21 0 -30z m-1670 -5 c-3 -7 -5
-2 -5 12 0 14 2 19 5 13 2 -7 2 -19 0 -25z m1940 -45 c-2 -16 -4 -5 -4 22 0
28 2 40 4 28 2 -13 2 -35 0 -50z m-1153 -15 c-7 -23 -20 -16 -26 16 -7 34 14
54 24 25 5 -12 6 -30 2 -41z m-787 -10 c-2 -13 -4 -5 -4 17 -1 22 1 32 4 23 2
-10 2 -28 0 -40z m1239 40 c4 -6 3 -8 -4 -4 -7 4 -12 -10 -15 -41 l-3 -48 -2
53 c-2 49 8 66 24 40z m1814 -13 c0 -8 -4 -17 -10 -20 -6 -4 -10 5 -10 20 0
15 4 24 10 20 6 -3 10 -12 10 -20z m-1404 -10 c1 -8 -2 -15 -6 -15 -5 0 -8 9
-7 20 1 21 10 18 13 -5z m-1006 -25 c0 -22 -4 -40 -10 -40 -5 0 -10 18 -10 40
0 22 5 40 10 40 6 0 10 -18 10 -40z m91 16 c-9 -11 -9 -15 1 -19 8 -4 7 -6 -4
-6 -12 -1 -18 6 -18 19 0 12 7 20 16 20 13 0 14 -3 5 -14z m399 -26 c0 -22 -4
-40 -10 -40 -5 0 -10 18 -10 40 0 22 5 40 10 40 6 0 10 -18 10 -40z m107 18
c-3 -8 -6 -5 -6 6 -1 11 2 17 5 13 3 -3 4 -12 1 -19z m-1220 -10 c-3 -8 -6 -5
-6 6 -1 11 2 17 5 13 3 -3 4 -12 1 -19z m593 -9 c0 -20 -4 -29 -12 -27 -18 6
-22 39 -6 49 18 12 18 12 18 -22z m887 -46 c-2 -16 -4 -3 -4 27 0 30 2 43 4
28 2 -16 2 -40 0 -55z m1452 -17 c-5 -6 -9 10 -8 40 l1 49 8 -40 c5 -22 4 -44
-1 -49z m63 38 c-6 -35 -12 -29 -12 14 0 23 3 32 9 24 4 -7 6 -24 3 -38z
m-842 26 c0 -5 -5 -10 -11 -10 -5 0 -7 5 -4 10 3 6 8 10 11 10 2 0 4 -4 4 -10z
m-1763 -52 c-3 -7 -5 -2 -5 12 0 14 2 19 5 13 2 -7 2 -19 0 -25z m293 11 c0
-5 -4 -9 -10 -9 -5 0 -10 7 -10 16 0 8 5 12 10 9 6 -3 10 -10 10 -16z m2283
-4 c-7 -21 -13 -19 -13 6 0 11 4 18 10 14 5 -3 7 -12 3 -20z m-2343 -4 c0 -6
-4 -13 -10 -16 -5 -3 -10 1 -10 9 0 9 5 16 10 16 6 0 10 -4 10 -9z m25 -1 c3
-5 1 -10 -4 -10 -6 0 -11 5 -11 10 0 6 2 10 4 10 3 0 8 -4 11 -10z m2443 -4
c-7 -8 -15 -12 -17 -11 -5 6 10 25 20 25 5 0 4 -6 -3 -14z m-2498 -5 c0 -6 -4
-13 -10 -16 -5 -3 -10 1 -10 9 0 9 5 16 10 16 6 0 10 -4 10 -9z m137 -63 c-2
-13 -4 -3 -4 22 0 25 2 35 4 23 2 -13 2 -33 0 -45z m30 30 c-3 -7 -5 -2 -5 12
0 14 2 19 5 13 2 -7 2 -19 0 -25z m873 23 c0 -6 -4 -13 -10 -16 -5 -3 -10 1
-10 9 0 9 5 16 10 16 6 0 10 -4 10 -9z m1173 -69 c2 -34 1 -65 -4 -68 -5 -3
-9 27 -9 67 0 87 6 88 13 1z m-2306 51 c-4 -3 -2 -12 5 -20 9 -12 4 -33 -6
-22 -12 14 -16 49 -5 49 7 0 9 -3 6 -7z m142 -40 c-1 -30 -4 -37 -6 -20 -2 15
-9 27 -14 27 -5 0 -7 -11 -5 -25 3 -14 0 -25 -5 -25 -5 0 -9 16 -9 35 0 25 4
35 16 35 8 0 12 5 9 10 -3 6 -1 10 4 10 7 0 10 -20 10 -47z m35 12 c-1 -51
-14 -56 -14 -7 0 23 3 42 8 42 4 0 7 -16 6 -35z m113 -2 c-3 -10 -5 -4 -5 12
0 17 2 24 5 18 2 -7 2 -21 0 -30z m370 -5 c-3 -7 -5 -2 -5 12 0 14 2 19 5 13
2 -7 2 -19 0 -25z m1201 -75 c-4 -37 -4 -37 -15 -13 -6 15 -7 27 -1 31 5 3 8
10 7 15 -1 5 0 25 1 44 l3 35 4 -37 c2 -21 3 -55 1 -75z m262 61 c0 -19 -4
-34 -10 -34 -5 0 -10 18 -10 41 0 24 4 38 10 34 6 -3 10 -22 10 -41z m30 36
c0 -5 -4 -10 -10 -10 -5 0 -10 5 -10 10 0 6 5 10 10 10 6 0 10 -4 10 -10z
m-1948 -25 c3 -14 1 -25 -3 -25 -5 0 -9 11 -9 25 0 14 2 25 4 25 2 0 6 -11 8
-25z m2344 -19 c-8 -20 -15 -39 -15 -41 -1 -12 -32 -64 -42 -71 -6 -3 -4 4 4
17 9 13 25 50 37 82 12 32 24 56 27 54 2 -3 -3 -21 -11 -41z m-2464 -8 c-3
-27 -9 -38 -21 -37 -10 0 -11 2 -3 6 6 2 12 17 12 32 0 15 3 31 7 34 10 10 11
5 5 -35z m2315 -15 c-3 -10 -5 -2 -5 17 0 19 2 27 5 18 2 -10 2 -26 0 -35z
m-2915 7 c3 -16 1 -30 -4 -30 -4 0 -8 14 -8 30 0 17 2 30 4 30 2 0 6 -13 8
-30z m488 5 c0 -8 -7 -15 -16 -15 -8 0 -13 -4 -9 -10 3 -5 12 -7 20 -3 9 3 15
-1 15 -8 0 -11 2 -11 10 1 5 8 12 11 16 7 18 -17 -28 -29 -63 -16 -14 5 -23 5
-24 -1 -1 -6 -2 -14 -3 -19 -3 -21 -16 -23 -16 -3 0 12 -4 22 -9 22 -5 0 -7
-8 -4 -18 3 -14 -7 -21 -47 -34 -43 -14 -51 -14 -46 -2 3 8 1 14 -3 14 -5 0
-11 -7 -15 -15 -8 -22 -23 -18 -29 8 -3 12 -8 31 -12 42 -5 15 -2 21 12 22 10
1 36 6 58 11 80 20 104 21 115 4 5 -10 10 -12 10 -4 0 6 7 12 15 12 8 0 15 5
15 10 0 6 2 10 5 10 3 0 5 -7 5 -15z m56 -12 c-6 -6 -36 9 -36 18 0 5 9 4 20
-3 10 -7 18 -14 16 -15z m2064 -31 c0 -20 -5 -44 -10 -52 -7 -11 -10 2 -10 43
0 36 4 56 10 52 6 -3 10 -23 10 -43z m-3010 13 c0 -9 -6 -12 -16 -8 -13 5 -13
7 -2 14 17 11 18 11 18 -6z m2720 -47 c0 -45 -3 -59 -10 -48 -15 24 -10 110 6
110 2 0 4 -28 4 -62z m-4630 42 c0 -5 -2 -10 -4 -10 -3 0 -8 5 -11 10 -3 6 -1
10 4 10 6 0 11 -4 11 -10z m1740 6 c0 -3 -4 -8 -10 -11 -5 -3 -10 -1 -10 4 0
6 5 11 10 11 6 0 10 -2 10 -4z m1130 -6 c0 -5 -4 -10 -10 -10 -5 0 -10 5 -10
10 0 6 5 10 10 10 6 0 10 -4 10 -10z m1920 -30 c0 -22 -4 -40 -10 -40 -5 0
-10 18 -10 40 0 22 5 40 10 40 6 0 10 -18 10 -40z m277 -7 c-3 -10 -5 -2 -5
17 0 19 2 27 5 18 2 -10 2 -26 0 -35z m-40 -25 c-2 -13 -4 -5 -4 17 -1 22 1
32 4 23 2 -10 2 -28 0 -40z m-2247 38 c0 -3 -4 -8 -10 -11 -5 -3 -10 -1 -10 4
0 6 5 11 10 11 6 0 10 -2 10 -4z m1980 -36 c0 -22 -4 -40 -10 -40 -5 0 -10 18
-10 40 0 22 5 40 10 40 6 0 10 -18 10 -40z m-970 4 c0 -8 -4 -12 -10 -9 -5 3
-10 10 -10 16 0 5 5 9 10 9 6 0 10 -7 10 -16z m1122 -90 c17 -19 41 -35 52
-35 20 -2 19 -2 -2 -6 -16 -3 -29 4 -48 26 -22 27 -33 31 -77 33 -51 1 -51 2
-9 5 42 4 42 4 44 46 l1 42 4 -38 c3 -26 15 -51 35 -73z m-3492 36 c0 -75 -29
-100 -32 -27 l-1 42 -6 -45 -7 -45 -5 48 c-5 52 -2 61 21 69 24 8 30 0 30 -42z
m62 -5 c-3 -39 -8 -55 -18 -55 -8 0 -14 6 -14 13 0 8 -4 7 -10 -3 -7 -11 -10
0 -10 37 0 51 4 57 45 62 6 1 9 -21 7 -54z m25 -12 c-2 -16 -4 -5 -4 22 0 28
2 40 4 28 2 -13 2 -35 0 -50z m3136 5 l72 -2 -70 -5 -70 -6 -2 -85 c-1 -47 -2
-101 -3 -120 l-1 -35 -14 30 c-13 29 -13 30 -14 5 -1 -14 -4 -36 -8 -49 l-6
-23 -11 26 c-14 35 -6 188 11 193 8 3 13 -15 16 -59 3 -55 3 -51 5 25 3 112
-10 111 -57 -3 -34 -81 -34 -83 -15 -97 10 -8 18 -19 16 -25 -1 -5 2 -16 8
-23 7 -8 8 -34 5 -66 -7 -61 -12 -70 -25 -49 -7 10 -10 11 -10 3 0 -7 -5 -13
-11 -13 -8 0 -10 25 -6 88 6 76 5 83 -6 52 -9 -27 -18 -36 -39 -38 -16 -2 -28
-8 -28 -13 0 -6 5 -7 10 -4 6 3 10 -3 10 -15 0 -12 -4 -18 -10 -15 -6 4 -10
-5 -10 -19 0 -14 -5 -26 -10 -26 -6 0 -10 6 -9 13 1 6 1 27 0 45 -1 36 -20 44
-22 10 -2 -22 -2 -22 -6 -2 -4 21 -10 22 -117 23 -135 2 -173 -13 -194 -76
-33 -96 -55 -133 -86 -141 -18 -5 -36 -20 -46 -37 -12 -23 -28 -33 -64 -42
-59 -15 -72 -25 -80 -65 -19 -96 -25 -108 -56 -108 -24 0 -30 -5 -31 -22 l-2
-23 -4 23 c-6 31 -23 28 -24 -5 l-2 -28 -4 28 c-6 39 -51 38 -81 -3 -12 -16
-32 -32 -45 -36 -12 -3 -41 -32 -64 -64 -23 -32 -53 -64 -68 -72 -15 -7 -34
-25 -43 -40 -14 -24 -14 -27 3 -44 12 -12 37 -19 78 -21 51 -3 67 -9 101 -37
53 -42 72 -49 99 -32 12 7 49 17 82 20 32 4 77 17 100 29 32 18 49 21 85 15
25 -3 68 -7 96 -7 60 -1 76 13 94 78 7 27 31 67 59 100 66 78 136 168 168 218
37 58 66 69 108 43 40 -25 82 -26 89 -2 3 9 8 35 12 57 3 22 10 46 14 54 9 16
70 44 70 32 0 -5 -13 -14 -30 -21 -31 -13 -35 -20 -45 -85 -4 -22 -9 -48 -12
-57 -7 -26 -57 -23 -100 6 -19 14 -41 22 -49 19 -7 -2 -28 -28 -46 -56 -18
-29 -37 -55 -43 -59 -8 -5 -9 -25 -5 -58 4 -27 3 -50 -2 -50 -4 0 -8 21 -8 48
-1 37 -3 43 -11 29 -5 -9 -7 -22 -4 -27 4 -6 1 -9 -6 -8 -19 5 -125 -133 -144
-187 -10 -27 -24 -57 -31 -66 -16 -18 -18 -29 -4 -29 10 0 44 57 45 75 0 6 11
12 25 14 14 1 28 8 32 15 30 48 85 116 94 116 6 0 23 9 37 20 20 16 40 20 104
20 l80 0 1 36 c2 45 12 59 13 18 0 -21 5 -13 17 31 12 43 23 63 39 70 12 5 27
19 34 32 13 24 71 38 125 30 21 -3 17 -4 -16 -6 -64 -2 -88 -10 -95 -32 -4
-11 -18 -25 -33 -33 -22 -12 -30 -26 -42 -82 l-15 -69 -40 -7 c-22 -4 -65 -7
-96 -7 -30 -1 -60 -6 -66 -12 -6 -6 -22 -16 -34 -23 -13 -6 -41 -36 -62 -66
-21 -30 -46 -58 -55 -61 -10 -4 -31 -25 -46 -48 -23 -33 -35 -41 -59 -41 -17
0 -38 -6 -46 -14 -9 -8 -46 -16 -86 -19 -203 -15 -241 -20 -264 -38 -13 -11
-32 -19 -43 -19 -13 0 -25 -13 -36 -40 -12 -28 -25 -42 -42 -46 -45 -10 -50
-13 -60 -38 -10 -29 -33 -34 -145 -35 -92 0 -89 5 8 14 53 5 67 10 68 23 1 15
2 15 6 -1 7 -28 43 -21 56 12 8 23 19 30 46 35 32 5 38 10 53 54 16 44 21 49
42 45 16 -3 35 3 52 16 16 12 41 21 63 21 81 0 141 12 142 29 1 13 2 13 6 -1
4 -14 15 -18 58 -18 32 0 57 5 64 14 9 11 -2 16 -67 26 -73 11 -80 10 -113 -9
-19 -11 -61 -23 -94 -27 -33 -3 -70 -13 -82 -20 -36 -22 -59 -17 -108 26 -44
38 -50 40 -110 40 -50 0 -66 4 -75 17 -8 12 -13 14 -16 6 -16 -38 -43 -58 -75
-57 -20 1 -33 6 -31 13 1 6 -9 16 -22 21 -13 5 -27 14 -31 19 -3 6 -26 11 -51
11 -43 0 -44 0 -44 -34 0 -20 -7 -39 -17 -47 -16 -12 -17 -12 -6 2 7 9 12 39
12 68 -1 28 1 55 5 58 3 3 6 -3 6 -15 0 -19 6 -22 40 -22 23 0 52 -8 66 -17
22 -14 27 -14 36 -2 7 11 11 11 15 2 12 -31 21 -8 16 42 -5 47 -3 55 11 55 12
0 16 10 16 44 0 25 5 48 10 51 6 4 10 -22 9 -72 0 -43 -3 -72 -6 -65 -10 24
-18 11 -21 -35 -3 -47 -3 -47 17 -28 12 10 21 28 21 41 0 13 4 26 10 29 6 4 7
-1 4 -12 -5 -16 -3 -15 11 2 10 12 14 30 11 46 -3 15 1 34 10 45 13 18 13 17
5 -7 -11 -31 -5 -42 18 -30 9 5 20 8 25 8 5 -1 27 24 49 56 21 32 51 64 66 71
14 8 37 26 50 40 13 14 36 28 52 31 28 6 29 8 31 78 l2 72 3 -72 c2 -40 8 -73
13 -73 6 0 11 10 11 23 l2 22 4 -22 c9 -49 23 -19 20 45 -2 57 -6 70 -27 89
-14 12 -20 23 -14 23 7 0 15 -7 18 -16 9 -22 26 -7 27 24 0 24 1 25 8 7 5 -11
7 -23 4 -27 -2 -5 1 -8 6 -8 7 0 11 33 12 88 1 48 2 92 4 97 6 28 8 27 14 -5
6 -37 7 -37 71 -26 l35 6 -32 -10 c-18 -6 -36 -16 -40 -23 -14 -21 -32 -100
-33 -142 -1 -36 -2 -38 -14 -22 -13 16 -15 10 -18 -52 -4 -89 11 -88 30 1 13
59 18 67 48 82 19 9 45 16 58 16 16 0 31 12 50 40 19 28 33 40 51 40 21 0 28
10 55 83 42 109 66 127 173 127 l77 0 0 136 c0 87 4 133 10 129 6 -3 11 -34
11 -68 2 -55 3 -58 8 -22 6 38 7 37 14 -29 5 -46 4 -72 -3 -82 -7 -7 -8 -19
-4 -25 4 -8 3 -9 -4 -5 -7 4 -12 1 -12 -8 0 -9 2 -16 4 -16 2 0 11 -3 20 -6
14 -5 16 4 17 62 1 58 2 64 10 39 5 -16 8 -45 7 -64 -2 -26 1 -35 15 -37 9 -1
22 5 28 14 7 12 12 14 15 5 3 -7 16 -13 29 -13 22 0 30 18 40 85 0 6 7 23 13
38 7 16 9 33 6 39 -4 6 -2 8 3 5 6 -4 20 15 31 43 12 30 27 50 36 50 10 0 16
9 16 23 0 37 15 43 18 8 l3 -31 72 -2z m-3293 1 l0 -52 -25 27 c-38 42 -33 67
18 75 4 0 7 -22 7 -50z m-64 25 c-3 -9 -6 -24 -6 -35 0 -30 -27 -22 -38 10 -9
25 -8 31 6 34 35 9 44 7 38 -9z m-1399 -46 c-2 -13 -4 -5 -4 17 -1 22 1 32 4
23 2 -10 2 -28 0 -40z m1253 22 c-9 -6 -9 -9 0 -15 9 -6 9 -10 -1 -16 -24 -15
-34 -10 -35 21 -1 22 4 30 20 32 24 3 34 -11 16 -22z m37 8 c-3 -8 -6 -5 -6 6
-1 11 2 17 5 13 3 -3 4 -12 1 -19z m36 2 c-3 -11 -9 -20 -14 -20 -5 0 -9 9 -9
20 0 11 6 20 14 20 9 0 12 -7 9 -20z m1387 10 c0 -5 -2 -10 -4 -10 -3 0 -8 5
-11 10 -3 6 -1 10 4 10 6 0 11 -4 11 -10z m-1510 -33 c0 -24 -5 -33 -18 -34
-12 -1 -18 6 -20 24 -2 30 4 43 24 43 9 0 14 -11 14 -33z m4200 13 c-6 -11
-13 -20 -16 -20 -2 0 0 9 6 20 6 11 13 20 16 20 2 0 0 -9 -6 -20z m-5338 -15
c3 -14 1 -25 -3 -25 -5 0 -9 11 -9 25 0 14 2 25 4 25 2 0 6 -11 8 -25z m1015
-37 c-2 -13 -4 -3 -4 22 0 25 2 35 4 23 2 -13 2 -33 0 -45z m-1342 42 c3 -5 1
-10 -4 -10 -6 0 -11 5 -11 10 0 6 2 10 4 10 3 0 8 -4 11 -10z m2972 -22 c-3
-7 -5 -2 -5 12 0 14 2 19 5 13 2 -7 2 -19 0 -25z m2166 25 c-7 -2 -19 -2 -25
0 -7 3 -2 5 12 5 14 0 19 -2 13 -5z m-3578 -13 c3 -5 1 -10 -4 -10 -6 0 -11 5
-11 10 0 6 2 10 4 10 3 0 8 -4 11 -10z m135 -10 c0 -5 -4 -10 -10 -10 -5 0
-10 5 -10 10 0 6 5 10 10 10 6 0 10 -4 10 -10z m700 0 c0 -5 -4 -10 -10 -10
-5 0 -10 5 -10 10 0 6 5 10 10 10 6 0 10 -4 10 -10z m30 0 c0 -5 -4 -10 -10
-10 -5 0 -10 5 -10 10 0 6 5 10 10 10 6 0 10 -4 10 -10z m2176 -61 c-6 -86
-16 -86 -16 0 0 46 4 70 10 66 6 -4 8 -32 6 -66z m1011 51 c-23 -18 -38 -20
-114 -17 l-88 3 91 2 c67 1 95 6 104 17 7 8 17 15 23 15 5 0 -2 -9 -16 -20z
m-5620 -52 c-2 -13 -4 -3 -4 22 0 25 2 35 4 23 2 -13 2 -33 0 -45z m90 -5 c-2
-16 -4 -5 -4 22 0 28 2 40 4 28 2 -13 2 -35 0 -50z m180 15 c-3 -7 -5 -2 -5
12 0 14 2 19 5 13 2 -7 2 -19 0 -25z m1593 12 c0 -5 -4 -10 -10 -10 -5 0 -10
5 -10 10 0 6 5 10 10 10 6 0 10 -4 10 -10z m-1533 -47 c-3 -10 -5 -2 -5 17 0
19 2 27 5 18 2 -10 2 -26 0 -35z m4868 17 c-3 -5 -12 -10 -18 -10 -7 0 -6 4 3
10 19 12 23 12 15 0z m-2795 -30 c0 -5 -2 -10 -4 -10 -3 0 -8 5 -11 10 -3 6
-1 10 4 10 6 0 11 -4 11 -10z m605 -30 c12 5 26 6 30 2 4 -4 12 -7 18 -7 7 0
12 -8 12 -18 0 -10 7 -22 15 -27 13 -8 12 -10 -2 -10 -10 0 -18 -7 -18 -16 0
-12 -3 -14 -12 -6 -9 7 -17 6 -25 -3 -9 -10 -10 -14 -1 -17 7 -3 5 -7 -5 -11
-11 -4 -17 -1 -17 8 0 24 -20 17 -21 -7 -1 -18 -5 -14 -19 18 -18 38 -17 84 1
84 5 0 10 12 10 28 l2 27 4 -27 c4 -24 7 -26 28 -18z m1865 -19 c0 -6 -4 -12
-8 -15 -5 -3 -9 1 -9 9 0 8 4 15 9 15 4 0 8 -4 8 -9z m-1155 -71 c-5 -8 -11
-8 -17 -2 -6 6 -7 16 -3 22 5 8 11 8 17 2 6 -6 7 -16 3 -22z m-3808 -2 c-3 -8
-6 -5 -6 6 -1 11 2 17 5 13 3 -3 4 -12 1 -19z m193 12 c0 -5 -4 -10 -10 -10
-5 0 -10 5 -10 10 0 6 5 10 10 10 6 0 10 -4 10 -10z m280 0 c0 -5 -4 -10 -10
-10 -5 0 -10 5 -10 10 0 6 5 10 10 10 6 0 10 -4 10 -10z m710 0 c0 -5 -7 -10
-16 -10 -8 0 -12 5 -9 10 3 6 10 10 16 10 5 0 9 -4 9 -10z m610 6 c0 -3 -4 -8
-10 -11 -5 -3 -10 -1 -10 4 0 6 5 11 10 11 6 0 10 -2 10 -4z m300 -6 c0 -5 -5
-10 -11 -10 -5 0 -7 5 -4 10 3 6 8 10 11 10 2 0 4 -4 4 -10z m836 -5 c-3 -8 0
-15 6 -15 7 0 6 -5 -2 -15 -10 -12 -9 -15 6 -16 16 -1 17 -2 2 -6 -10 -2 -18
-17 -21 -36 -2 -18 -5 -2 -5 36 -1 43 2 67 9 67 6 0 9 -7 5 -15z m34 5 c0 -5
-4 -10 -10 -10 -5 0 -10 5 -10 10 0 6 5 10 10 10 6 0 10 -4 10 -10z m350 0 c0
-5 -2 -10 -4 -10 -3 0 -8 5 -11 10 -3 6 -1 10 4 10 6 0 11 -4 11 -10z m780
-286 c14 -17 14 -18 -2 -6 -15 12 -17 8 -21 -45 l-3 -58 -2 64 c-2 57 -4 62
-18 50 -9 -7 -29 -36 -45 -64 -31 -55 -37 -56 -15 -4 8 19 28 47 45 63 30 29
31 32 33 130 l2 101 5 -106 c4 -72 11 -112 21 -125z m-4093 139 c-2 -16 -4 -3
-4 27 0 30 2 43 4 28 2 -16 2 -40 0 -55z m4913 27 c0 -22 -4 -40 -8 -40 -5 0
-9 18 -9 40 0 22 4 40 9 40 4 0 8 -18 8 -40z m-960 9 c0 -11 -4 -18 -10 -14
-5 3 -7 12 -3 20 7 21 13 19 13 -6z m-2823 -31 c-3 -8 -6 -5 -6 6 -1 11 2 17
5 13 3 -3 4 -12 1 -19z m2814 -3 c5 4 9 -15 9 -44 0 -28 -4 -51 -10 -51 -5 0
-10 -20 -10 -44 0 -62 -20 -70 -21 -9 -1 45 -1 46 -10 18 -5 -16 -9 -48 -8
-70 0 -22 0 -51 0 -65 -1 -22 -3 -23 -12 -8 -14 25 -7 214 8 211 7 -2 15 16
19 44 5 35 9 42 16 29 5 -9 13 -14 19 -11z m-1024 -7 c-3 -8 -6 -5 -6 6 -1 11
2 17 5 13 3 -3 4 -12 1 -19z m2798 -27 c-55 -3 -107 -10 -115 -14 -8 -5 -6 -1
4 7 15 12 41 16 115 14 l96 -2 -100 -5z m-5245 -39 c0 -4 -19 -6 -42 -4 -71 5
-77 10 -15 11 31 0 57 -2 57 -7z m5051 1 c-35 -2 -75 -11 -90 -20 l-26 -15 25
21 c20 17 37 20 90 19 l65 -2 -64 -3z m-1691 -37 c0 -3 -4 -8 -10 -11 -5 -3
-10 -1 -10 4 0 6 5 11 10 11 6 0 10 -2 10 -4z m1458 -14 c-10 -4 -31 -28 -47
-55 -42 -64 -47 -60 -8 8 22 37 38 54 52 54 17 0 18 -1 3 -7z m-4178 -52 c1 8
2 20 1 27 -1 6 2 14 7 17 5 3 10 -26 11 -64 1 -43 -2 -70 -9 -70 -5 0 -10 8
-10 18 0 14 -2 15 -10 2 -11 -16 -13 -5 -12 55 1 59 5 70 12 35 4 -19 8 -28
10 -20z m3306 -30 c5 1 10 -3 12 -9 2 -6 -6 -11 -17 -11 -15 0 -21 6 -21 23 0
16 3 18 9 9 4 -8 12 -13 17 -12z m-616 -117 c0 -89 -3 -123 -10 -113 -10 14
-12 216 -3 233 11 19 13 -2 13 -120z m-3383 95 c-3 -8 -6 -5 -6 6 -1 11 2 17
5 13 3 -3 4 -12 1 -19z m53 12 c0 -5 -5 -10 -11 -10 -5 0 -7 5 -4 10 3 6 8 10
11 10 2 0 4 -4 4 -10z m570 6 c0 -3 -4 -8 -10 -11 -5 -3 -10 -1 -10 4 0 6 5
11 10 11 6 0 10 -2 10 -4z m30 -6 c0 -5 -4 -10 -10 -10 -5 0 -10 5 -10 10 0 6
5 10 10 10 6 0 10 -4 10 -10z m110 6 c0 -3 -4 -8 -10 -11 -5 -3 -10 -1 -10 4
0 6 5 11 10 11 6 0 10 -2 10 -4z m1530 -6 c0 -5 -2 -10 -4 -10 -3 0 -8 5 -11
10 -3 6 -1 10 4 10 6 0 11 -4 11 -10z m30 0 c0 -5 -2 -10 -4 -10 -3 0 -8 5
-11 10 -3 6 -1 10 4 10 6 0 11 -4 11 -10z m190 0 c0 -5 -2 -10 -4 -10 -3 0 -8
5 -11 10 -3 6 -1 10 4 10 6 0 11 -4 11 -10z m260 6 c0 -3 -4 -8 -10 -11 -5 -3
-10 -1 -10 4 0 6 5 11 10 11 6 0 10 -2 10 -4z m740 -6 c0 -5 -2 -10 -4 -10 -3
0 -8 5 -11 10 -3 6 -1 10 4 10 6 0 11 -4 11 -10z m-70 -107 c-6 -30 -8 -33
-10 -13 -7 57 -7 86 -2 100 10 26 20 -46 12 -87z m-36 22 c-4 -8 -8 -15 -10
-15 -2 0 -4 7 -4 15 0 8 4 15 10 15 5 0 7 -7 4 -15z m110 -12 c-7 -30 -24 -55
-24 -35 0 12 21 62 27 62 2 0 0 -12 -3 -27z m-3861 10 c-7 -2 -19 -2 -25 0 -7
3 -2 5 12 5 14 0 19 -2 13 -5z m4864 -15 c-3 -8 -6 -5 -6 6 -1 11 2 17 5 13 3
-3 4 -12 1 -19z m-4710 6 c-3 -3 -12 -4 -19 -1 -8 3 -5 6 6 6 11 1 17 -2 13
-5z m226 -11 c-7 -2 -19 -2 -25 0 -7 3 -2 5 12 5 14 0 19 -2 13 -5z m2407 -3
c0 -5 -5 -10 -11 -10 -5 0 -7 5 -4 10 3 6 8 10 11 10 2 0 4 -4 4 -10z m-772
-87 l8 -58 16 30 16 30 11 -28 c6 -16 11 -35 11 -43 0 -8 9 -14 20 -14 11 0
20 -4 20 -8 0 -5 -10 -8 -22 -7 -15 1 -25 12 -33 34 l-11 32 -12 -34 c-19 -52
-37 -53 -36 -3 0 23 -3 51 -7 62 -5 13 -8 1 -9 -36 -1 -30 -5 -46 -7 -36 -3
11 -2 53 2 94 8 86 21 80 33 -15z m1681 -36 c0 -45 -4 -91 -9 -102 -6 -13 -9
18 -9 88 -1 70 3 106 9 102 6 -3 10 -43 9 -88z m-1212 -34 c-2 -21 -4 -6 -4
32 0 39 2 55 4 38 2 -18 2 -50 0 -70z m299 12 c1 -45 -3 -71 -8 -63 -9 15 -8
138 1 138 4 0 7 -34 7 -75z m1271 -62 c-2 -21 -4 -4 -4 37 0 41 2 58 4 38 2
-21 2 -55 0 -75z m-2297 -42 c0 -42 -6 -38 -13 9 -13 79 -26 97 -46 63 -6 -10
-11 -14 -11 -9 0 5 8 18 17 29 17 19 18 18 35 -20 10 -21 18 -53 18 -72z m700
-27 c0 -74 -4 -113 -10 -109 -19 11 -12 225 7 225 2 0 3 -52 3 -116z m59 79
c0 -25 -1 -25 -8 -8 -5 11 -7 23 -4 28 8 14 13 7 12 -20z m522 -33 c6 0 7 -4
4 -10 -3 -5 -1 -10 6 -10 7 0 4 -6 -7 -14 -25 -19 -34 -3 -26 44 5 27 7 30 10
13 2 -13 8 -23 13 -23z m-1354 -22 c-2 -13 -4 -5 -4 17 -1 22 1 32 4 23 2 -10
2 -28 0 -40z m290 -20 c-2 -13 -4 -3 -4 22 0 25 2 35 4 23 2 -13 2 -33 0 -45z
m172 2 l-1 -25 -8 25 c-4 14 -8 32 -9 40 -1 13 0 13 9 0 5 -8 9 -26 9 -40z
m2214 9 c-9 -3 -27 -3 -40 -1 l-24 5 23 11 c16 9 28 9 40 2 17 -10 17 -11 1
-17z m-3963 12 c0 -5 -27 -8 -59 -8 -32 1 -57 5 -54 10 6 10 113 9 113 -2z
m5393 -2 c7 0 2 -4 -10 -9 -11 -5 -31 -6 -44 -3 -22 6 -22 7 -3 14 10 4 25 6
32 3 8 -2 19 -4 25 -5z m-4683 -3 c0 -3 -4 -8 -10 -11 -5 -3 -10 -1 -10 4 0 6
5 11 10 11 6 0 10 -2 10 -4z m1819 -31 c-25 -42 -32 -45 -18 -8 8 23 25 42 36
43 1 0 -7 -16 -18 -35z m638 -32 c-3 -10 -5 -2 -5 17 0 19 2 27 5 18 2 -10 2
-26 0 -35z m-1890 5 c-3 -7 -5 -2 -5 12 0 14 2 19 5 13 2 -7 2 -19 0 -25z m90
-15 c-3 -10 -5 -4 -5 12 0 17 2 24 5 18 2 -7 2 -21 0 -30z m401 -73 c0 -16 -3
-11 -9 15 -4 22 -8 51 -7 65 0 16 3 11 9 -15 4 -22 8 -51 7 -65z m-208 68 c0
12 4 22 8 22 4 0 6 -16 4 -35 -2 -19 -6 -35 -8 -35 -2 0 -10 12 -18 28 l-15
27 -1 -30 c-1 -16 -4 -24 -7 -17 -3 7 -2 25 2 40 l7 27 13 -25 c14 -25 14 -25
15 -2z m967 -30 c-3 -7 -5 -2 -5 12 0 14 2 19 5 13 2 -7 2 -19 0 -25z m-1260
-10 c-3 -7 -5 -2 -5 12 0 14 2 19 5 13 2 -7 2 -19 0 -25z m110 -20 c-3 -7 -5
-2 -5 12 0 14 2 19 5 13 2 -7 2 -19 0 -25z m1797 -9 c-2 -4 -13 -5 -23 -2 -24
6 -28 -22 -23 -170 3 -97 4 -99 23 -81 21 19 69 28 69 13 0 -5 -13 -9 -29 -9
-16 0 -34 -7 -41 -15 -7 -8 -19 -15 -28 -15 -9 0 -27 -14 -41 -30 -24 -28 -32
-31 -108 -37 -53 -4 -83 -2 -83 4 0 6 34 11 78 12 74 2 78 3 115 39 33 32 37
42 37 84 0 26 -4 48 -10 48 -6 0 -10 28 -10 65 0 65 -19 94 -21 33 -1 -24 -3
-27 -6 -10 -2 12 -8 22 -14 22 -5 0 6 15 25 34 24 26 39 33 55 29 14 -3 21 -1
21 8 0 11 2 11 9 -1 6 -8 8 -17 5 -21z m-1264 12 c0 -6 -4 -13 -10 -16 -5 -3
-10 1 -10 9 0 9 5 16 10 16 6 0 10 -4 10 -9z m120 -72 c0 -75 1 -80 17 -68 15
12 16 12 8 -1 -30 -54 -72 -66 -100 -27 -17 21 -17 21 -12 -23 5 -41 4 -43 -9
-26 -16 23 -19 67 -4 82 8 8 8 19 0 38 -5 15 -10 33 -9 39 0 7 11 -17 25 -53
20 -53 29 -66 47 -68 23 -1 23 0 19 93 -3 66 -1 95 7 95 7 0 11 -28 11 -81z
m-773 29 c-3 -7 -5 -2 -5 12 0 14 2 19 5 13 2 -7 2 -19 0 -25z m260 -15 c-3
-10 -5 -2 -5 17 0 19 2 27 5 18 2 -10 2 -26 0 -35z m312 -93 c2 -67 18 -67 34
1 8 35 16 55 16 43 1 -11 -6 -43 -15 -70 -9 -29 -15 -82 -14 -131 0 -52 -3
-83 -10 -83 -6 0 -10 32 -10 83 0 106 -20 248 -33 240 -6 -4 -8 0 -4 11 4 10
8 23 8 29 2 22 27 -87 28 -123z m-1729 116 c0 -2 -7 -7 -16 -10 -8 -3 -12 -2
-9 4 6 10 25 14 25 6z m35 -6 c3 -6 -1 -7 -9 -4 -18 7 -21 14 -7 14 6 0 13 -4
16 -10z m1252 -12 c-3 -8 -6 -5 -6 6 -1 11 2 17 5 13 3 -3 4 -12 1 -19z
m-1001 -23 c36 -19 61 -35 54 -35 -6 0 -24 7 -40 15 -28 14 -30 14 -31 -2 0
-15 -2 -14 -9 3 -13 32 -28 38 -105 45 l-70 6 67 1 c60 2 75 -2 134 -33z
m1403 -12 c1 -7 -3 -13 -9 -13 -5 0 -10 15 -9 33 0 27 2 29 9 12 5 -11 9 -26
9 -32z m98 25 c-3 -8 -6 -5 -6 6 -1 11 2 17 5 13 3 -3 4 -12 1 -19z m834 -77
c0 -51 -2 -95 -5 -98 -3 -4 -6 40 -6 97 0 57 2 101 5 98 3 -2 5 -46 6 -97z
m-2659 57 c-7 -7 -12 -8 -12 -2 0 14 12 26 19 19 2 -3 -1 -11 -7 -17z m3315 0
c-3 -8 -6 -5 -6 6 -1 11 2 17 5 13 3 -3 4 -12 1 -19z m-1980 -10 c-3 -8 -6 -5
-6 6 -1 11 2 17 5 13 3 -3 4 -12 1 -19z m-750 -8 c10 -11 23 -20 29 -20 7 0
21 -15 32 -34 16 -27 26 -34 53 -34 55 0 58 -1 70 -24 12 -22 11 -22 -8 -5
-12 10 -36 17 -61 17 -38 0 -44 3 -59 35 -9 19 -24 35 -32 35 -13 0 -16 -12
-15 -58 0 -31 -4 -63 -9 -69 -6 -8 -6 -13 0 -13 5 0 10 -15 11 -32 l2 -33 -20
38 c-18 32 -25 37 -58 37 -20 0 -44 5 -52 11 -11 8 4 9 55 6 39 -2 64 -2 58 0
-7 3 -13 12 -13 21 0 11 -3 13 -8 6 -4 -7 -22 -11 -39 -11 -32 2 -33 4 -33 42
0 61 -10 85 -34 87 -11 1 6 4 39 8 33 4 63 7 68 8 4 1 15 -7 24 -18z m600 -2
c-3 -8 -6 -5 -6 6 -1 11 2 17 5 13 3 -3 4 -12 1 -19z m260 -35 c-3 -10 -5 -2
-5 17 0 19 2 27 5 18 2 -10 2 -26 0 -35z m546 32 c-3 -9 -8 -14 -10 -11 -3 3
-2 9 2 15 9 16 15 13 8 -4z m-2013 -10 c-7 -8 -17 -15 -23 -15 -6 0 -2 7 9 15
25 19 30 19 14 0z m213 -2 c-7 -2 -19 -2 -25 0 -7 3 -2 5 12 5 14 0 19 -2 13
-5z m52 -3 c3 -5 -1 -10 -9 -10 -9 0 -16 5 -16 10 0 6 4 10 9 10 6 0 13 -4 16
-10z m1108 -35 c5 -28 4 -34 -3 -20 -8 19 -14 73 -6 64 2 -2 6 -22 9 -44z
m1127 24 c0 -11 -4 -18 -10 -14 -5 3 -7 12 -3 20 7 21 13 19 13 -6z m419 -21
c0 -35 -2 -39 -9 -21 -8 19 -3 63 6 63 2 0 4 -19 3 -42z m434 -20 c8 -5 6 -8
-5 -8 -14 0 -18 8 -17 38 2 34 2 34 6 7 3 -16 10 -33 16 -37z m-2153 34 c0
-25 -37 -47 -56 -31 -11 9 -17 9 -29 -1 -8 -7 -15 -8 -15 -2 0 5 7 16 16 23
14 11 18 10 30 -5 11 -16 16 -17 29 -6 8 7 15 19 15 26 0 8 2 14 5 14 3 0 5
-8 5 -18z m1031 11 c5 -27 7 -142 3 -160 -10 -51 -23 -17 -26 72 -2 71 0 95
10 95 6 0 13 -3 13 -7z m479 -77 c-7 -7 -10 6 -9 40 l1 49 9 -39 c6 -26 6 -43
-1 -50z m-2401 38 c12 -20 20 -39 17 -41 -2 -3 -14 13 -26 36 -25 51 -20 54 9
5z m2442 -50 c-11 -43 -17 -82 -14 -87 3 -6 1 -7 -5 -3 -8 5 -12 -1 -12 -14 0
-12 4 -19 8 -16 5 3 9 -2 9 -10 0 -9 -4 -11 -10 -5 -5 5 -19 3 -35 -5 -15 -8
-32 -14 -39 -14 -6 0 -14 -9 -18 -19 -3 -11 -15 -31 -26 -45 -17 -22 -29 -26
-71 -26 -67 0 -125 -18 -148 -47 -10 -13 -24 -23 -32 -23 -7 0 -31 -9 -53 -20
-22 -11 -47 -20 -57 -20 -11 0 -28 -15 -39 -34 -17 -29 -25 -34 -49 -31 -16 2
-33 -2 -39 -9 -8 -10 -2 -16 28 -26 45 -15 77 -3 84 32 4 22 4 22 6 -2 1 -23
5 -25 63 -28 56 -3 63 -1 82 23 16 20 34 28 68 32 32 4 45 9 42 18 -3 7 -1 16
5 20 7 3 11 -2 11 -14 0 -17 6 -21 33 -21 37 0 52 9 52 29 0 8 7 16 15 18 13
4 13 3 0 -7 -12 -9 -5 -10 30 -4 45 6 54 14 77 67 10 22 10 27 -2 27 -8 0 -15
6 -15 14 0 8 -5 18 -12 22 -8 5 -9 2 -5 -9 8 -20 -4 -29 -23 -16 -9 5 -10 9
-3 9 6 0 10 13 9 30 -2 32 10 41 17 13 3 -15 6 -13 15 8 12 29 38 44 48 27 5
-7 2 -8 -6 -3 -9 5 -11 4 -6 -3 11 -18 21 -14 36 12 14 27 41 38 61 25 10 -6
7 -9 -12 -9 -20 0 -30 -9 -46 -42 -12 -24 -26 -61 -32 -83 -17 -64 -44 -100
-76 -103 -16 -1 -40 -10 -54 -19 -14 -9 -52 -18 -86 -20 -97 -6 -124 -13 -135
-33 -9 -17 -22 -20 -83 -20 -40 0 -89 -4 -110 -9 -21 -5 -39 -5 -43 0 -9 15
-80 10 -94 -6 -18 -21 -29 -19 -23 5 3 12 -2 29 -12 40 -16 18 -32 20 -168 20
-83 0 -147 3 -144 7 4 3 73 5 155 4 142 -2 148 -3 173 -27 l26 -25 31 25 c18
16 42 26 60 26 24 0 34 6 44 27 9 18 25 31 50 38 20 5 43 16 50 23 6 6 19 12
29 12 9 0 33 14 54 30 43 34 55 38 139 44 61 5 71 10 90 48 6 12 28 32 49 43
29 16 40 29 48 60 18 72 51 166 56 162 2 -3 -5 -40 -16 -83z m-882 -26 c0 -56
-3 -76 -9 -63 -16 38 -11 145 7 145 2 0 3 -37 2 -82z m-412 35 c-3 -10 -5 -4
-5 12 0 17 2 24 5 18 2 -7 2 -21 0 -30z m704 -36 c-4 -74 -11 -72 -11 3 0 35
3 60 7 56 4 -3 6 -30 4 -59z m-2464 -105 c9 2 18 -3 21 -11 3 -10 0 -12 -11
-8 -9 3 -19 2 -22 -3 -4 -6 1 -10 9 -10 9 0 16 -5 16 -11 0 -5 -4 -8 -9 -5 -5
3 -12 -16 -16 -42 -6 -35 -9 -42 -15 -28 -5 16 -8 17 -15 6 -7 -11 -10 -10
-16 6 -5 12 -8 -1 -8 -38 -1 -32 -5 -58 -11 -58 -6 0 -10 28 -10 65 0 53 3 63
15 59 10 -4 15 0 15 15 0 12 -6 21 -12 22 -10 0 -10 2 0 6 6 2 12 14 12 24 0
11 4 18 9 15 8 -5 19 52 23 123 1 20 4 -1 5 -47 3 -69 6 -82 20 -80z m1690
126 c-3 -8 -6 -5 -6 6 -1 11 2 17 5 13 3 -3 4 -12 1 -19z m2526 -4 c-4 -12 -8
-13 -14 -3 -9 15 -2 32 11 24 5 -3 6 -13 3 -21z m726 -1 c-8 -9 -16 -10 -22
-4 -13 13 0 31 19 24 11 -4 12 -8 3 -20z m699 18 c11 -6 11 -10 0 -19 -16 -13
-44 1 -34 17 8 13 16 14 34 2z m-5839 -93 c1 -45 -2 -58 -14 -58 -8 0 -15 -6
-16 -12 0 -10 -2 -10 -6 0 -9 22 -23 13 -23 -15 0 -33 -11 -24 -15 14 -3 33 4
50 15 33 4 -6 10 10 14 36 3 28 2 52 -5 60 -8 9 -5 11 10 7 16 -4 21 0 22 13
1 45 18 -23 18 -78z m1596 82 c-4 -6 25 -10 79 -10 46 0 86 3 89 8 2 4 3 2 1
-4 -4 -20 25 -53 71 -80 39 -23 65 -57 52 -70 -2 -3 -7 6 -11 19 -3 14 -18 30
-36 37 -16 7 -44 27 -62 46 -32 34 -35 34 -110 33 -50 -1 -78 -6 -78 -13 0 -7
-3 -7 -8 -1 -4 6 -39 11 -79 12 l-72 3 10 -30 c9 -24 14 -28 29 -20 20 11 30
4 30 -19 0 -14 -2 -14 -9 -2 -8 12 -13 12 -24 3 -12 -10 -17 -7 -28 19 -11 28
-14 30 -20 13 -7 -17 -8 -17 -8 4 -1 20 -6 22 -53 22 -34 0 -48 3 -39 9 7 5
68 10 135 10 66 1 125 6 130 11 13 13 19 13 11 0z m1822 -27 c-3 -10 -5 -4 -5
12 0 17 2 24 5 18 2 -7 2 -21 0 -30z m-2542 9 c-3 -3 -11 0 -18 7 -9 10 -8 11
6 5 10 -3 15 -9 12 -12z m1314 -63 c-3 -85 -19 -84 -19 1 0 46 4 69 10 65 6
-4 10 -33 9 -66z m-242 14 c-3 -10 -5 -2 -5 17 0 19 2 27 5 18 2 -10 2 -26 0
-35z m750 -45 c-2 -18 -4 -4 -4 32 0 36 2 50 4 33 2 -18 2 -48 0 -65z m-1127
62 c8 -5 11 -10 5 -10 -5 0 -17 5 -25 10 -8 5 -10 10 -5 10 6 0 17 -5 25 -10z
m680 -20 c0 -16 -4 -30 -10 -30 -11 0 -14 43 -3 53 11 12 13 8 13 -23z m-99
-32 c2 -26 0 -50 -4 -54 -4 -4 -7 19 -7 51 0 69 7 70 11 3z m-1944 5 c-3 -10
-5 -4 -5 12 0 17 2 24 5 18 2 -7 2 -21 0 -30z m1324 10 c-12 -20 -14 -14 -5
12 4 9 9 14 11 11 3 -2 0 -13 -6 -23z m394 1 c9 -15 12 -23 6 -20 -11 7 -35
46 -28 46 3 0 12 -12 22 -26z m1489 1 c3 -8 1 -15 -4 -15 -6 0 -10 7 -10 15 0
8 2 15 4 15 2 0 6 -7 10 -15z m-2007 -17 c-3 -8 -6 -5 -6 6 -1 11 2 17 5 13 3
-3 4 -12 1 -19z m-1097 -60 c0 -62 -6 -60 -15 5 -4 31 -3 47 4 47 7 0 11 -21
11 -52z m848 27 c-3 -3 -9 2 -12 12 -6 14 -5 15 5 6 7 -7 10 -15 7 -18z
m-1127 2 c-1 -12 -15 -9 -19 4 -3 6 1 10 8 8 6 -3 11 -8 11 -12z m54 2 c11
-17 -1 -21 -15 -4 -8 9 -8 15 -2 15 6 0 14 -5 17 -11z m1986 -26 l2 -38 7 35
7 35 2 -34 c1 -28 4 -32 20 -28 13 3 18 0 15 -8 -3 -7 -14 -11 -25 -8 -11 3
-21 -1 -25 -11 -11 -29 -24 -6 -24 45 0 57 19 68 21 12z m-1821 12 c0 -8 5
-15 12 -15 9 0 9 -3 0 -12 -7 -7 -12 -34 -12 -62 0 -27 -2 -47 -4 -45 -9 9
-13 149 -5 149 5 0 9 -7 9 -15z m30 5 c0 -5 -4 -10 -10 -10 -5 0 -10 5 -10 10
0 6 5 10 10 10 6 0 10 -4 10 -10z m58 -8 c-3 -12 2 -24 13 -31 13 -8 19 -23
19 -51 0 -22 -5 -40 -10 -40 -7 0 -9 15 -5 39 5 33 2 42 -15 51 -21 11 -28 50
-9 50 6 0 9 -8 7 -18z m1520 -24 c1 -18 -3 -40 -8 -48 -7 -11 -10 0 -10 38 0
57 14 65 18 10z m-723 -25 c4 9 18 17 31 17 14 0 27 7 30 15 4 8 10 15 15 15
5 0 0 -15 -11 -32 -18 -31 -19 -33 -2 -40 14 -5 13 -7 -5 -7 -17 -1 -23 5 -23
19 0 11 -4 20 -10 20 -5 0 -15 -9 -22 -20 -17 -27 -24 -25 -37 12 -11 30 -12
31 -24 12 -8 -10 -24 -45 -36 -77 -13 -31 -27 -60 -32 -62 -4 -3 -13 10 -20
30 -9 23 -16 31 -21 22 -5 -8 -8 -4 -8 11 0 32 16 27 30 -10 l12 -33 30 65
c16 36 37 73 46 83 16 18 17 17 33 -20 14 -31 18 -35 24 -20z m196 17 c23 -41
39 -51 39 -26 0 8 4 17 10 21 5 3 5 -7 -1 -25 -6 -16 -15 -30 -20 -30 -5 0
-18 19 -30 43 -12 23 -27 45 -33 49 -8 6 -8 8 1 8 6 0 22 -18 34 -40z m649 13
c0 -16 -5 -35 -10 -43 -7 -11 -10 -4 -10 28 0 23 5 42 10 42 6 0 10 -12 10
-27z m-152 -57 c1 -22 -3 -48 -8 -56 -7 -10 -10 7 -10 55 0 74 17 76 18 1z
m209 -3 c-2 -16 -4 -5 -4 22 0 28 2 40 4 28 2 -13 2 -35 0 -50z m419 34 c-3
-13 -18 -29 -33 -35 l-28 -12 28 21 c15 11 27 30 27 42 0 11 3 18 6 14 4 -3 4
-17 0 -30z m-533 5 c6 -25 -8 -102 -16 -82 -13 36 -15 100 -2 100 7 0 15 -8
18 -18z m-1513 -22 c8 -15 8 -20 -3 -20 -7 0 -13 9 -14 20 -1 11 0 20 2 20 2
0 9 -9 15 -20z m2740 5 c0 -8 -2 -15 -4 -15 -2 0 -6 7 -10 15 -3 8 -1 15 4 15
6 0 10 -7 10 -15z m-3055 -5 c3 -5 1 -10 -4 -10 -6 0 -11 5 -11 10 0 6 2 10 4
10 3 0 8 -4 11 -10z m454 -31 c18 -22 31 -42 29 -45 -3 -2 -19 16 -37 41 -40
56 -35 59 8 4z m-209 21 c0 -5 -2 -10 -4 -10 -3 0 -8 5 -11 10 -3 6 -1 10 4
10 6 0 11 -4 11 -10z m1400 -35 c0 -19 -4 -35 -10 -35 -5 0 -10 16 -10 35 0
19 5 35 10 35 6 0 10 -16 10 -35z m644 -12 c-10 -48 -48 -73 -108 -73 -82 0
-181 -49 -104 -51 l33 -1 -29 -8 c-16 -5 -33 -7 -37 -4 -4 2 -10 0 -14 -5 -3
-6 -12 -8 -20 -5 -7 3 -18 -4 -25 -15 -7 -14 -21 -21 -41 -21 -16 0 -46 -7
-66 -15 -19 -8 -57 -15 -82 -15 -35 0 -56 -7 -81 -25 -19 -14 -44 -25 -56 -25
-14 0 -25 -8 -29 -21 -4 -11 -9 -18 -12 -16 -10 11 19 47 38 47 29 0 61 19 56
33 -3 8 17 13 66 15 39 2 80 8 90 13 10 6 37 14 60 18 28 5 42 12 41 22 -1 9
9 16 24 17 14 1 28 4 31 7 6 7 -13 26 -30 29 -8 2 -21 6 -29 9 -8 3 -24 8 -35
10 -11 3 -2 5 21 6 27 1 47 -5 61 -19 18 -17 23 -17 33 -5 7 8 21 15 31 15 10
0 21 5 24 10 3 6 33 10 66 10 74 0 94 10 109 55 14 42 23 47 14 8z m-429 -3
c3 -5 1 -10 -4 -10 -6 0 -11 5 -11 10 0 6 2 10 4 10 3 0 8 -4 11 -10z m-155
-56 c0 -24 -4 -44 -10 -44 -5 0 -10 23 -10 51 0 31 4 48 10 44 6 -3 10 -26 10
-51z m-1313 14 c-3 -8 -6 -5 -6 6 -1 11 2 17 5 13 3 -3 4 -12 1 -19z m525 -38
c28 -27 59 -50 70 -50 18 0 53 -59 41 -70 -3 -3 -8 1 -11 9 -6 17 -29 39 -76
71 -20 14 -44 38 -53 55 -15 28 -17 28 -24 10 -6 -17 -8 -17 -8 -2 -1 15 -16
17 -175 17 -96 0 -177 3 -179 8 -3 4 78 6 179 5 l185 -2 51 -51z m324 28 l29
-32 -32 25 c-18 13 -32 27 -32 32 -1 12 4 8 35 -25z m1631 -10 c-3 -8 -6 -5
-6 6 -1 11 2 17 5 13 3 -3 4 -12 1 -19z m-993 -3 c3 -8 1 -15 -4 -15 -6 0 -10
7 -10 15 0 8 2 15 4 15 2 0 6 -7 10 -15z m-1517 -147 c-2 -29 -3 -6 -3 52 0
58 1 81 3 53 2 -29 2 -77 0 -105z m30 70 c-2 -18 -4 -6 -4 27 0 33 2 48 4 33
2 -15 2 -42 0 -60z m460 40 c-3 -8 -6 -5 -6 6 -1 11 2 17 5 13 3 -3 4 -12 1
-19z m2085 0 c-7 -7 -12 -8 -12 -2 0 14 12 26 19 19 2 -3 -1 -11 -7 -17z
m1375 0 c-3 -8 -6 -5 -6 6 -1 11 2 17 5 13 3 -3 4 -12 1 -19z m738 13 c7 -12
-12 -24 -25 -16 -11 7 -4 25 10 25 5 0 11 -4 15 -9z m-3635 -17 c0 -2 -7 -4
-15 -4 -8 0 -15 4 -15 10 0 5 7 7 15 4 8 -4 15 -8 15 -10z m100 6 c0 -5 -10
-10 -22 -9 -22 0 -22 1 -3 9 11 5 21 9 23 9 1 1 2 -3 2 -9z m1360 0 c0 -5 -4
-10 -9 -10 -6 0 -13 5 -16 10 -3 6 1 10 9 10 9 0 16 -4 16 -10z m830 6 c0 -3
-4 -8 -10 -11 -5 -3 -10 -1 -10 4 0 6 5 11 10 11 6 0 10 -2 10 -4z m2038 -7
c-2 -6 -8 -10 -13 -10 -5 0 -11 4 -13 10 -2 6 4 11 13 11 9 0 15 -5 13 -11z
m-4153 -13 c17 -1 21 -9 23 -48 2 -29 -1 -48 -7 -48 -6 0 -11 20 -11 46 0 54
-19 51 -22 -4 -1 -37 -1 -37 -8 8 -7 43 -7 42 -10 -25 -4 -92 -4 -92 -13 -101
-4 -4 -7 37 -7 90 0 90 2 98 18 91 9 -4 26 -8 37 -9z m-1315 -12 c0 -8 -4 -12
-10 -9 -5 3 -10 10 -10 16 0 5 5 9 10 9 6 0 10 -7 10 -16z m528 9 c-13 -3 -18
-15 -19 -41 -1 -20 -5 -48 -10 -62 -6 -20 -7 -17 -4 15 2 22 4 52 5 68 0 22 4
27 23 26 16 -1 18 -2 5 -6z m-458 -7 c0 -11 -19 -15 -25 -6 -3 5 1 10 9 10 9
0 16 -2 16 -4z m2357 -28 c-3 -7 -5 -2 -5 12 0 14 2 19 5 13 2 -7 2 -19 0 -25z
m-2177 -52 c0 -25 -4 -48 -10 -51 -6 -4 -10 13 -10 44 0 28 5 51 10 51 6 0 10
-20 10 -44z m150 -52 c0 -46 -4 -74 -11 -74 -6 0 -10 25 -8 68 1 38 -1 74 -5
80 -5 8 -2 10 8 6 13 -5 16 -22 16 -80z m412 29 c44 -42 148 -71 148 -40 0 8
3 9 8 1 12 -18 52 -35 64 -28 7 4 8 3 4 -4 -7 -12 4 -16 36 -13 9 1 19 -3 23
-9 3 -6 11 -8 16 -5 5 4 9 1 9 -4 0 -19 20 -12 21 7 1 16 2 16 6 0 3 -11 15
-18 31 -19 21 -1 23 -2 7 -6 -11 -3 -23 -10 -27 -17 -5 -7 -11 -8 -15 -1 -5 6
-23 18 -41 28 -30 17 -33 17 -39 1 -6 -16 -7 -16 -14 2 -7 17 -8 17 -8 -4 -1
-28 -21 -19 -21 9 0 10 -6 19 -14 19 -8 0 -17 6 -19 13 -6 14 -7 9 -11 -76 -4
-86 -16 -82 -16 6 l0 77 -34 0 c-19 0 -38 5 -41 10 -3 6 -13 10 -22 10 -9 0
-33 16 -54 35 -22 19 -36 35 -32 35 4 0 19 -12 35 -27z m-265 -70 c-2 -16 -4
-3 -4 27 0 30 2 43 4 28 2 -16 2 -40 0 -55z m-812 50 c5 -14 3 -15 -6 -6 -8 8
-20 9 -38 2 -24 -9 -25 -8 -7 6 26 20 42 19 51 -2z m981 -43 l30 -10 -3 -82
c-3 -87 -15 -119 -28 -71 -7 26 -8 26 -15 8 -6 -14 -9 -3 -9 35 -1 39 2 51 9
40 7 -11 10 -4 10 25 0 29 -5 44 -20 53 -19 12 -20 10 -20 -53 0 -42 -4 -65
-11 -65 -8 0 -10 20 -5 69 4 42 3 72 -3 75 -5 4 -12 -8 -14 -26 -3 -22 -4 -17
-4 15 l0 48 26 -25 c15 -14 40 -30 57 -36z m616 28 c-8 -8 -9 -4 -5 13 4 13 8
18 11 10 2 -7 -1 -18 -6 -23z m-1519 11 c35 -19 58 -48 77 -97 20 -53 34 -63
44 -30 4 13 10 18 12 11 8 -17 -14 -53 -29 -47 -7 2 -27 35 -45 73 -25 54 -38
71 -61 79 -23 8 -32 7 -42 -4 -6 -8 -15 -14 -20 -14 -5 0 -1 9 8 20 20 23 26
24 56 9z m647 -15 c0 -14 -4 -23 -10 -19 -5 3 -10 15 -10 26 0 10 5 19 10 19
6 0 10 -12 10 -26z m27 -31 c-3 -10 -5 -4 -5 12 0 17 2 24 5 18 2 -7 2 -21 0
-30z m-272 7 c3 -5 1 -10 -4 -10 -6 0 -11 5 -11 10 0 6 2 10 4 10 3 0 8 -4 11
-10z m1035 -30 c0 -14 64 -12 79 3 11 10 13 9 9 -3 -3 -9 -20 -16 -46 -18 -39
-3 -41 -5 -44 -40 -3 -30 -5 -33 -12 -17 -4 11 -12 28 -17 38 -6 11 -6 17 1
17 5 0 10 7 10 15 0 8 5 15 10 15 6 0 10 -4 10 -10z m-1268 -42 c9 -27 22 -44
34 -47 10 -2 25 -12 32 -23 8 -11 20 -17 28 -14 8 3 14 1 14 -4 0 -18 -35 -10
-48 10 -7 11 -17 20 -24 20 -20 0 -48 32 -48 57 0 12 -4 23 -10 23 -5 0 -10 5
-10 10 0 25 20 6 32 -32z m484 7 c-14 -21 -20 -24 -37 -14 -12 6 -32 8 -46 4
-16 -4 -22 -2 -18 5 8 13 41 13 66 0 16 -9 21 -7 31 15 6 14 13 23 16 20 3 -2
-3 -16 -12 -30z m1304 -1 c17 -10 18 -13 5 -8 -11 3 -38 6 -60 5 -30 -1 -36 1
-25 9 21 14 51 12 80 -6z m-640 -23 c0 -11 -4 -23 -10 -26 -6 -4 -10 5 -10 19
0 14 5 26 10 26 6 0 10 -9 10 -19z m-180 -61 c0 -32 -4 -62 -10 -65 -6 -4 -10
20 -10 65 0 45 4 69 10 65 6 -3 10 -33 10 -65z m-130 10 c0 -32 -3 -38 -16
-33 -11 4 -12 9 -5 16 6 6 11 21 11 34 0 13 2 23 5 23 3 0 5 -18 5 -40z m70
-25 c0 -37 -4 -65 -10 -65 -6 0 -10 28 -10 65 0 37 4 65 10 65 6 0 10 -28 10
-65z m210 55 c0 -5 -4 -10 -10 -10 -5 0 -10 5 -10 10 0 6 5 10 10 10 6 0 10
-4 10 -10z m-976 -16 c3 -8 2 -12 -4 -9 -6 3 -10 10 -10 16 0 14 7 11 14 -7z
m5338 -46 c-9 -9 -15 -9 -24 0 -10 10 -10 15 2 22 20 12 38 -6 22 -22z m-2732
12 c0 -5 -7 -10 -15 -10 -8 0 -15 5 -15 10 0 6 7 10 15 10 8 0 15 -4 15 -10z
m698 -1 c-2 -6 -8 -10 -13 -10 -5 0 -11 4 -13 10 -2 6 4 11 13 11 9 0 15 -5
13 -11z m1342 2 c0 -6 -4 -13 -10 -16 -5 -3 -10 1 -10 9 0 9 5 16 10 16 6 0
10 -4 10 -9z m-4680 -79 c0 -15 -2 -15 -10 -2 -13 20 -13 33 0 25 6 -3 10 -14
10 -23z m0 -363 c0 -5 -4 -9 -10 -9 -5 0 -10 7 -10 16 0 8 5 12 10 9 6 -3 10
-10 10 -16z m720 1 c0 -5 -7 -10 -16 -10 -8 0 -12 5 -9 10 3 6 10 10 16 10 5
0 9 -4 9 -10z m1915 4 c13 -5 14 -8 3 -15 -19 -13 -28 -11 -28 6 0 17 2 18 25
9z m2045 -4 c0 -5 -4 -10 -10 -10 -5 0 -10 5 -10 10 0 6 5 10 10 10 6 0 10 -4
10 -10z m-373 -58 c6 -4 -11 -8 -39 -9 -28 -1 -56 -8 -64 -14 -8 -6 -14 -7
-14 -2 0 24 89 43 117 25z m-131 -25 c3 -2 -2 -7 -10 -10 -9 -4 -18 -2 -21 3
-13 21 -35 10 -36 -17 l-2 -28 -4 28 c-3 19 -10 27 -21 25 -11 -2 -16 -14 -17
-43 0 -30 -4 -41 -17 -43 -15 -3 -18 4 -18 32 0 28 -3 34 -16 29 -12 -4 -15
-17 -12 -51 3 -43 1 -46 -51 -94 -31 -28 -57 -45 -59 -39 -2 6 -11 11 -20 11
-12 0 -13 -3 -5 -8 9 -6 5 -17 -17 -43 l-29 -34 -2 35 c-1 19 -1 39 0 44 1 5
-5 4 -13 -4 -10 -8 -16 -29 -16 -56 0 -24 -4 -44 -10 -44 -5 0 -10 12 -10 26
0 22 -2 24 -14 14 -8 -6 -16 -25 -18 -42 -2 -23 -12 -35 -43 -53 -22 -13 -78
-48 -124 -79 -62 -41 -87 -53 -93 -44 -5 9 -8 8 -8 -4 0 -11 -5 -15 -15 -12
-8 4 -15 1 -15 -5 0 -8 -5 -9 -19 -1 -16 8 -20 6 -23 -12 -4 -25 -28 -37 -28
-14 0 14 -5 14 -41 -4 -23 -12 -43 -19 -46 -16 -3 2 10 12 28 21 17 10 42 26
53 37 34 32 215 148 291 187 38 20 82 50 97 66 15 17 49 54 75 84 79 89 187
161 258 174 20 3 83 -7 91 -16z m-1603 -248 c12 -7 54 -42 93 -80 75 -72 86
-77 179 -82 57 -3 56 -3 -15 -5 -86 -2 -101 5 -177 83 -26 27 -63 59 -82 72
-36 24 -35 31 2 12z m767 -13 c0 -8 -4 -17 -9 -21 -12 -7 -24 12 -16 25 9 15
25 12 25 -4z m606 -13 c-10 -10 -19 5 -10 18 6 11 8 11 12 0 2 -7 1 -15 -2
-18z m-975 -181 c56 -49 134 -102 151 -103 10 0 10 -2 0 -6 -7 -2 -37 12 -67
32 -64 42 -151 115 -137 115 5 0 29 -17 53 -38z m287 -109 c-10 -2 -26 -2 -35
0 -10 3 -2 5 17 5 19 0 27 -2 18 -5z m-81 -9 c-3 -3 -12 -4 -19 -1 -8 3 -5 6
6 6 11 1 17 -2 13 -5z"/>
<path d="M4590 3766 c0 -31 6 -34 13 -6 3 11 1 23 -4 26 -5 3 -9 -6 -9 -20z"/>
<path d="M5021 3164 c0 -11 3 -14 6 -6 3 7 2 16 -1 19 -3 4 -6 -2 -5 -13z"/>
<path d="M3812 2400 c-7 -11 -8 -20 -3 -20 9 0 24 30 18 36 -1 2 -8 -6 -15
-16z"/>
<path d="M3765 2390 c3 -5 8 -10 11 -10 2 0 4 5 4 10 0 6 -5 10 -11 10 -5 0
-7 -4 -4 -10z"/>
<path d="M1112 2180 c0 -14 2 -19 5 -12 2 6 2 18 0 25 -3 6 -5 1 -5 -13z"/>
<path d="M1132 2180 c0 -14 2 -19 5 -12 2 6 2 18 0 25 -3 6 -5 1 -5 -13z"/>
<path d="M3320 1949 c0 -5 5 -7 10 -4 6 3 10 8 10 11 0 2 -4 4 -10 4 -5 0 -10
-5 -10 -11z"/>
<path d="M62 2100 c0 -14 2 -19 5 -12 2 6 2 18 0 25 -3 6 -5 1 -5 -13z"/>
<path d="M4517 852 c-21 -23 -22 -38 -3 -45 10 -4 15 4 18 29 2 19 3 34 3 34
-1 0 -9 -8 -18 -18z"/>
<path d="M4470 820 c-13 -8 -12 -10 3 -10 9 0 17 5 17 10 0 12 -1 12 -20 0z"/>
<path d="M4194 569 c-8 -13 16 -30 30 -22 6 4 5 8 -2 11 -7 2 -10 8 -6 13 3 5
1 9 -5 9 -5 0 -13 -5 -17 -11z"/>
<path d="M4140 541 c0 -6 4 -13 10 -16 6 -3 7 1 4 9 -7 18 -14 21 -14 7z"/>
<path d="M3160 4029 c0 -5 5 -7 10 -4 6 3 10 8 10 11 0 2 -4 4 -10 4 -5 0 -10
-5 -10 -11z"/>
<path d="M3302 4020 c0 -14 2 -19 5 -12 2 6 2 18 0 25 -3 6 -5 1 -5 -13z"/>
<path d="M3322 4020 c0 -14 2 -19 5 -12 2 6 2 18 0 25 -3 6 -5 1 -5 -13z"/>
<path d="M3925 4032 c-12 -13 -3 -23 15 -17 19 6 20 2 20 -76 0 -45 3 -79 7
-76 3 4 5 32 4 62 -1 36 2 55 10 55 7 0 9 9 5 24 -4 15 -1 26 7 29 6 3 -5 5
-25 4 -21 0 -40 -3 -43 -5z"/>
<path d="M4480 4008 c0 -25 3 -29 10 -18 6 10 10 11 10 3 0 -7 5 -13 10 -13 6
0 10 14 10 30 0 23 -4 30 -20 30 -16 0 -20 -7 -20 -32z"/>
<path d="M0 4005 c0 -14 6 -25 13 -26 6 0 22 -2 35 -3 18 -2 22 2 22 26 0 25
-3 28 -35 28 -31 0 -35 -3 -35 -25z"/>
<path d="M90 4002 c0 -26 4 -29 35 -30 32 -1 35 1 35 28 0 28 -3 30 -35 30
-32 0 -35 -3 -35 -28z"/>
<path d="M180 3989 l0 -36 -50 5 -50 5 3 -72 c1 -39 -1 -71 -5 -71 -4 0 -8 7
-8 16 0 10 -6 14 -15 10 -20 -7 -20 28 0 48 8 8 15 26 15 40 0 23 -4 26 -35
26 l-35 0 0 -75 c0 -71 1 -75 23 -76 12 0 48 -2 79 -5 l57 -6 4 74 3 73 2 -71
2 -72 40 -4 39 -3 4 55 3 55 2 -57 2 -58 40 0 c31 0 40 4 40 18 0 14 -2 15
-10 2 -8 -12 -10 -12 -15 2 -11 29 -1 83 15 83 11 0 16 -15 20 -55 l5 -55 38
-3 c37 -3 37 -3 38 35 l2 38 6 -40 c5 -32 11 -41 29 -43 21 -3 22 -1 22 76 0
55 -4 82 -12 85 -10 4 -10 6 0 6 14 1 17 61 3 61 -5 0 -17 3 -26 6 -13 5 -15
0 -12 -29 2 -20 0 -41 -4 -49 -6 -9 -9 -9 -9 -1 0 6 -15 14 -32 16 l-33 4 33
1 c29 2 32 5 32 32 0 28 -2 30 -39 30 -33 0 -40 -4 -44 -22 -4 -20 -4 -19 -6
5 -1 24 -5 27 -36 27 -32 0 -35 -2 -35 -29 0 -25 5 -30 28 -34 15 -2 -2 -4
-38 -4 -36 0 -53 2 -37 4 22 4 27 9 27 33 0 24 -4 28 -35 32 -34 4 -35 3 -35
-33z m180 -39 c0 -5 -4 -10 -10 -10 -5 0 -10 5 -10 10 0 6 5 10 10 10 6 0 10
-4 10 -10z m-103 -32 c-3 -8 -6 -5 -6 6 -1 11 2 17 5 13 3 -3 4 -12 1 -19z"/>
<path d="M3890 4010 c-9 -6 -10 -10 -3 -10 6 0 15 5 18 10 8 12 4 12 -15 0z"/>
<path d="M3931 3991 c-8 -5 -10 -14 -6 -21 6 -9 10 -8 17 4 12 21 7 28 -11 17z"/>
<path d="M3797 3984 c-3 -3 -3 -12 0 -20 3 -8 0 -14 -7 -14 -6 0 -9 4 -6 9 3
5 -1 11 -8 14 -12 5 -15 -12 -18 -94 -3 -104 2 -143 16 -120 5 7 14 10 22 7 8
-3 23 5 34 17 24 26 12 33 -30 18 l-30 -10 0 65 c0 67 3 72 33 50 18 -14 18
-14 0 -19 -14 -4 -14 -5 5 -6 19 -1 22 4 22 38 0 22 -5 42 -12 44 -10 4 -9 8
2 16 13 9 13 11 -1 11 -9 0 -18 -3 -22 -6z"/>
<path d="M3840 3955 c0 -8 5 -15 10 -15 6 0 10 7 10 15 0 8 -4 15 -10 15 -5 0
-10 -7 -10 -15z"/>
<path d="M2453 3908 c-26 -38 -28 -50 -28 -140 -1 -54 1 -98 2 -98 2 0 8 10
13 23 6 12 19 36 29 52 13 19 20 49 20 83 1 47 -1 52 -21 52 -23 1 -23 1 2 15
14 8 19 14 12 15 -10 0 -10 5 -2 20 19 35 1 21 -27 -22z"/>
<path d="M3198 3943 c7 -3 16 -2 19 1 4 3 -2 6 -13 5 -11 0 -14 -3 -6 -6z"/>
<path d="M3840 3875 c0 -14 4 -25 9 -25 4 0 6 11 3 25 -2 14 -6 25 -8 25 -2 0
-4 -11 -4 -25z"/>
<path d="M2601 3864 c0 -11 3 -14 6 -6 3 7 2 16 -1 19 -3 4 -6 -2 -5 -13z"/>
<path d="M2595 3830 c-3 -5 -1 -10 4 -10 6 0 11 5 11 10 0 6 -2 10 -4 10 -3 0
-8 -4 -11 -10z"/>
<path d="M3790 3829 c0 -5 5 -7 10 -4 6 3 10 8 10 11 0 2 -4 4 -10 4 -5 0 -10
-5 -10 -11z"/>
<path d="M3391 3774 c0 -11 3 -14 6 -6 3 7 2 16 -1 19 -3 4 -6 -2 -5 -13z"/>
<path d="M0 3750 c0 -28 3 -30 35 -30 32 0 35 2 35 30 0 28 -3 30 -35 30 -32
0 -35 -2 -35 -30z"/>
<path d="M90 3767 c0 -8 -3 -22 -6 -31 -5 -13 1 -16 27 -17 l34 -1 -30 -7
c-30 -6 -30 -6 -33 -84 l-3 -77 33 -1 c18 0 70 -3 116 -5 l82 -4 2 32 c1 18 2
41 3 50 0 9 4 21 9 25 4 4 6 -18 4 -50 -1 -31 0 -57 5 -57 4 0 7 28 7 62 0 77
10 71 13 -8 l2 -59 38 -3 37 -3 0 115 0 116 -40 0 c-38 0 -40 -2 -40 -29 0
-27 4 -30 38 -34 l37 -4 -42 -1 -43 -2 0 40 c0 39 -1 40 -35 40 -32 0 -35 -2
-35 -29 0 -16 6 -32 13 -34 6 -3 -18 -6 -55 -6 -38 -1 -68 3 -68 8 0 5 20 6
44 4 42 -5 44 -5 48 26 4 29 3 31 -26 31 -17 0 -55 3 -83 6 -44 6 -53 4 -53
-9z m90 -23 c0 -8 -4 -12 -10 -9 -5 3 -10 10 -10 16 0 5 5 9 10 9 6 0 10 -7
10 -16z m-10 -110 c0 -30 -3 -53 -7 -51 -8 5 -5 107 3 107 2 0 4 -25 4 -56z
m87 19 c-3 -10 -5 -4 -5 12 0 17 2 24 5 18 2 -7 2 -21 0 -30z"/>
<path d="M2515 3740 c-3 -5 -1 -10 4 -10 6 0 11 5 11 10 0 6 -2 10 -4 10 -3 0
-8 -4 -11 -10z"/>
<path d="M2540 3739 c0 -5 5 -7 10 -4 6 3 10 8 10 11 0 2 -4 4 -10 4 -5 0 -10
-5 -10 -11z"/>
<path d="M2590 3740 c0 -5 5 -10 10 -10 6 0 10 5 10 10 0 6 -4 10 -10 10 -5 0
-10 -4 -10 -10z"/>
<path d="M2517 3713 c-11 -10 -8 -53 3 -53 6 0 10 14 10 30 0 31 -2 35 -13 23z"/>
<path d="M2558 3712 c-12 -2 -18 -13 -18 -31 0 -25 3 -28 35 -28 33 0 35 2 35
33 0 33 -5 36 -52 26z"/>
<path d="M0 3635 c0 -68 2 -75 20 -75 11 0 23 0 28 0 4 0 8 10 9 22 1 13 5 47
9 76 l7 52 -37 0 -36 0 0 -75z"/>
<path d="M3797 3684 c-3 -3 -3 -13 0 -22 4 -10 2 -13 -5 -8 -7 4 -12 1 -12 -9
0 -9 4 -13 10 -10 6 4 7 -1 3 -11 -5 -13 -3 -16 10 -11 8 3 18 1 21 -6 2 -7 5
9 5 36 1 33 -3 47 -12 47 -8 0 -16 -3 -20 -6z"/>
<path d="M2595 3630 c-3 -5 -1 -10 4 -10 6 0 11 5 11 10 0 6 -2 10 -4 10 -3 0
-8 -4 -11 -10z"/>
<path d="M4685 3620 c-3 -5 -1 -10 4 -10 6 0 11 5 11 10 0 6 -2 10 -4 10 -3 0
-8 -4 -11 -10z"/>
<path d="M4647 3593 c-4 -3 -7 -13 -7 -22 1 -13 3 -13 11 2 11 19 8 33 -4 20z"/>
<path d="M2571 3564 c0 -11 3 -14 6 -6 3 7 2 16 -1 19 -3 4 -6 -2 -5 -13z"/>
<path d="M2596 3571 c-4 -7 -5 -15 -2 -18 9 -9 19 4 14 18 -4 11 -6 11 -12 0z"/>
<path d="M4613 3572 c-8 -5 -10 -21 -6 -46 6 -36 7 -37 20 -21 7 11 13 26 12
34 0 12 -3 11 -10 -4 -7 -16 -9 -14 -6 13 2 17 3 32 3 32 -1 0 -6 -4 -13 -8z"/>
<path d="M0 3500 c0 -28 3 -30 35 -30 32 0 35 2 35 30 0 28 -3 30 -35 30 -32
0 -35 -2 -35 -30z"/>
<path d="M1263 3412 c-1 -22 0 -24 9 -8 6 10 6 22 2 26 -5 5 -10 -3 -11 -18z"/>
<path d="M1092 3300 c0 -19 2 -27 5 -17 2 9 2 25 0 35 -3 9 -5 1 -5 -18z"/>
<path d="M1151 3314 c0 -11 3 -14 6 -6 3 7 2 16 -1 19 -3 4 -6 -2 -5 -13z"/>
<path d="M2808 3265 c-3 -14 -1 -28 3 -31 5 -3 9 9 9 25 0 38 -6 40 -12 6z"/>
<path d="M4060 3100 c0 -5 5 -10 10 -10 6 0 10 5 10 10 0 6 -4 10 -10 10 -5 0
-10 -4 -10 -10z"/>
<path d="M2737 2434 c-7 -43 6 -74 32 -74 18 0 18 2 2 55 -9 30 -19 55 -22 55
-4 0 -9 -16 -12 -36z"/>
<path d="M2657 2404 c-6 -34 -7 -33 15 -25 14 5 15 9 4 30 l-13 24 -6 -29z"/>
<path d="M3518 2403 c7 -3 16 -2 19 1 4 3 -2 6 -13 5 -11 0 -14 -3 -6 -6z"/>
<path d="M3437 2383 c-4 -3 -7 -18 -7 -32 l0 -25 21 21 c12 11 18 26 15 32 -8
12 -19 14 -29 4z"/>
<path d="M2855 2360 c3 -5 8 -10 11 -10 2 0 4 5 4 10 0 6 -5 10 -11 10 -5 0
-7 -4 -4 -10z"/>
<path d="M3212 2335 c0 -16 2 -22 5 -12 2 9 2 23 0 30 -3 6 -5 -1 -5 -18z"/>
<path d="M2876 2325 c-3 -9 -10 -13 -16 -10 -5 3 -10 -1 -10 -9 0 -9 3 -16 8
-16 9 0 35 40 29 46 -3 3 -7 -2 -11 -11z"/>
<path d="M5 2260 c-3 -5 -1 -10 4 -10 6 0 11 5 11 10 0 6 -2 10 -4 10 -3 0 -8
-4 -11 -10z"/>
<path d="M2097 453 c-3 -5 8 -9 24 -10 16 -1 29 2 29 7 0 12 -47 13 -53 3z"/>
<path d="M0 336 c0 -22 4 -26 30 -26 17 0 30 2 30 4 0 3 -13 14 -30 26 l-30
21 0 -25z"/>
<path d="M2405 337 c-4 -10 -5 -21 -1 -24 10 -10 18 4 13 24 -4 17 -4 17 -12
0z"/>
<path d="M2010 318 c0 -27 -1 -28 -58 -28 -46 0 -63 -4 -77 -20 -16 -18 -16
-20 -2 -20 10 0 17 7 17 15 0 8 5 15 11 15 6 0 9 -7 5 -15 -4 -10 1 -15 14
-15 11 0 20 5 20 10 0 6 5 10 10 10 19 0 10 -19 -12 -26 -13 -4 -29 -14 -35
-23 -12 -14 -12 -14 -7 2 4 11 1 17 -9 17 -19 0 -30 -27 -14 -34 7 -2 -3 -5
-21 -5 -24 -1 -31 2 -26 12 4 6 -2 3 -14 -7 -12 -11 -22 -25 -22 -33 0 -7 -11
-13 -27 -13 -15 0 -36 -9 -47 -19 -13 -12 -40 -22 -71 -24 -27 -3 -63 -8 -80
-13 -16 -4 -41 -7 -55 -6 -14 0 -31 -5 -39 -11 -14 -12 -31 -17 -73 -20 -15
-1 -30 -6 -34 -10 -4 -4 -19 -7 -33 -7 -14 0 -35 -7 -45 -15 -14 -11 -23 -12
-33 -4 -10 9 -13 7 -14 -7 0 -11 -3 -14 -6 -6 -6 16 -72 15 -103 -3 -22 -13
39 -14 497 -15 488 0 522 1 526 18 4 16 5 16 6 -1 1 -16 95 -17 1921 -17
l1920 0 0 145 0 145 -65 0 c-37 0 -65 -4 -65 -10 0 -5 -7 -10 -15 -10 -8 0
-15 6 -15 13 0 8 -4 7 -10 -3 -8 -11 -12 -12 -18 -3 -12 19 -311 20 -324 1 -8
-10 -11 -10 -15 -1 -9 24 -20 13 -15 -16 3 -25 0 -30 -26 -36 -17 -3 -33 -13
-36 -20 -3 -8 -12 -12 -21 -9 -10 4 -15 0 -15 -10 0 -9 -4 -16 -9 -16 -5 0
-16 -3 -24 -6 -11 -4 -17 2 -20 23 l-4 28 -2 -27 c0 -16 -5 -28 -10 -28 -5 0
-12 12 -14 28 l-4 27 -2 -27 c0 -16 -5 -28 -11 -28 -5 0 -10 12 -10 28 -1 24
-2 25 -14 10 -10 -13 -15 -15 -24 -6 -9 9 -12 9 -12 0 0 -16 -37 -15 -43 1 -4
9 -8 9 -15 -2 -7 -9 -12 -10 -16 -2 -5 8 -12 6 -23 -4 -8 -9 -27 -15 -42 -13
-21 2 -27 9 -32 38 -5 33 -8 32 -22 -10 -3 -9 -6 -5 -6 9 -1 16 -5 21 -16 17
-12 -4 -15 3 -16 32 -2 30 -3 32 -6 9 -5 -30 -22 -37 -24 -9 -1 9 -1 21 0 26
1 5 -4 4 -12 -3 -11 -8 -16 -9 -19 -1 -5 17 -1139 15 -1150 -3 -6 -9 -8 -9 -8
1 0 21 -18 13 -23 -10 l-4 -23 -2 23 c0 12 -5 22 -11 22 -5 0 -10 -10 -10 -22
0 -18 -2 -20 -9 -8 -6 8 -7 18 -5 22 3 4 1 8 -5 8 -5 0 -12 -15 -14 -32 l-4
-33 -1 33 c-1 17 -6 32 -11 32 -6 0 -12 -15 -14 -32 l-4 -33 -1 33 c-2 39 -19
43 -25 5 l-4 -28 -2 28 c-1 31 -21 38 -21 7 0 -28 -20 -25 -21 3 0 21 -1 21
-9 2 -6 -16 -9 -17 -14 -5 -8 19 -127 24 -138 6 -6 -8 -11 -7 -18 4 -8 12 -10
11 -10 -7 0 -13 -5 -23 -11 -23 -5 0 -8 4 -5 8 2 4 1 14 -5 22 -6 11 -9 8 -9
-12 0 -39 -18 -44 -23 -6 -3 28 -4 26 -5 -11 -2 -52 -18 -45 -25 9 l-4 35 -1
-37 c-2 -48 -22 -50 -22 -3 0 41 -15 48 -18 8 -3 -38 -12 -42 -12 -5 0 18 -5
32 -11 32 -5 0 -8 -3 -6 -8 3 -4 1 -16 -4 -27 -7 -18 -8 -18 -8 -1 -1 12 -6
16 -16 12 -9 -3 -15 0 -15 8 0 18 -42 19 -642 18 -294 0 -508 4 -508 9 0 5 9
9 20 9 11 0 20 7 20 15 0 18 -16 20 -26 4 -4 -8 -9 -7 -15 2 -6 10 -9 6 -9
-13z m3915 -88 c-3 -5 -10 -10 -16 -10 -5 0 -9 5 -9 10 0 6 7 10 16 10 8 0 12
-4 9 -10z"/>
<path d="M2351 324 c0 -11 3 -14 6 -6 3 7 2 16 -1 19 -3 4 -6 -2 -5 -13z"/>
<path d="M4160 320 c0 -5 5 -10 10 -10 6 0 10 5 10 10 0 6 -4 10 -10 10 -5 0
-10 -4 -10 -10z"/>
<path d="M719 295 c-2 -2 -31 -4 -64 -6 -33 -1 -64 -7 -68 -13 -6 -8 -10 -7
-14 2 -4 10 -9 7 -17 -9 -6 -12 -21 -24 -34 -26 -20 -3 -22 0 -17 25 l5 27
-12 -25 c-11 -25 -11 -25 -15 -2 -5 23 -23 31 -23 10 0 -9 -4 -8 -10 2 -8 13
-10 13 -10 -2 0 -19 -23 -34 -60 -39 -14 -2 -29 -8 -33 -14 -6 -6 -10 -6 -14
3 -7 18 -23 15 -23 -5 -1 -17 -1 -17 -14 0 -17 22 -33 22 -39 0 -4 -17 -5 -17
-6 0 -1 14 -11 17 -51 17 l-51 0 26 -28 c14 -15 35 -41 46 -58 20 -33 72 -64
107 -64 11 0 22 -5 24 -11 2 -5 20 -14 40 -18 33 -8 37 -6 41 13 4 17 5 16 6
-5 2 -37 45 -54 54 -21 3 11 5 8 6 -9 1 -36 24 -39 329 -39 233 0 256 2 292
20 22 11 50 20 63 20 14 0 38 7 53 15 16 8 50 15 76 15 26 0 70 9 98 20 28 11
66 20 85 20 18 0 46 5 61 10 15 6 48 11 73 12 37 0 59 9 116 48 38 26 83 62
99 79 l30 31 -35 0 c-19 0 -278 2 -575 5 -298 2 -543 2 -545 0z"/>
<path d="M281 274 c0 -11 3 -14 6 -6 3 7 2 16 -1 19 -3 4 -6 -2 -5 -13z"/>
<path d="M370 281 c0 -6 5 -13 10 -16 6 -3 10 1 10 9 0 9 -4 16 -10 16 -5 0
-10 -4 -10 -9z"/>
<path d="M405 281 c-3 -5 -1 -12 5 -16 5 -3 10 1 10 9 0 18 -6 21 -15 7z"/>
<path d="M531 274 c0 -11 3 -14 6 -6 3 7 2 16 -1 19 -3 4 -6 -2 -5 -13z"/>
<path d="M5201 274 c0 -11 3 -14 6 -6 3 7 2 16 -1 19 -3 4 -6 -2 -5 -13z"/>
<path d="M5301 274 c0 -11 3 -14 6 -6 3 7 2 16 -1 19 -3 4 -6 -2 -5 -13z"/>
<path d="M5390 275 c0 -8 2 -15 4 -15 2 0 6 7 10 15 3 8 1 15 -4 15 -6 0 -10
-7 -10 -15z"/>
<path d="M6 232 c-3 -3 -6 -56 -6 -119 l0 -114 241 2 c267 1 282 6 139 50 -96
30 -130 50 -175 105 -20 24 -43 44 -51 44 -8 0 -14 9 -14 20 0 11 -4 20 -10
20 -5 0 -10 -8 -10 -17 0 -10 -4 -14 -8 -8 -4 6 -16 11 -27 12 -11 1 -32 4
-47 7 -15 2 -29 2 -32 -2z"/>
</g>
</svg>
